<mxfile host="app.diagrams.net" modified="2023-08-19T18:55:21.651Z" agent="Mozilla/5.0 (X11; Linux x86_64) AppleWebKit/537.36 (KHTML, like Gecko) Chrome/114.0.0.0 Safari/537.36" etag="iclzd16Nz3dlRGb5wtTt" version="21.6.8" type="device">
  <diagram id="vDqjUoAuHQiaoz7LTiOU" name="AlmacénMary">
    <mxGraphModel dx="1509" dy="844" grid="1" gridSize="10" guides="1" tooltips="1" connect="1" arrows="1" fold="1" page="1" pageScale="1" pageWidth="827" pageHeight="1169" math="0" shadow="0">
      <root>
        <mxCell id="0" />
        <mxCell id="1" parent="0" />
        <mxCell id="lYTeRvdv8kLkkW_NQM2Z-179" style="edgeStyle=orthogonalEdgeStyle;rounded=0;orthogonalLoop=1;jettySize=auto;html=1;entryX=0;entryY=0.5;entryDx=0;entryDy=0;endArrow=none;endFill=0;" parent="1" source="lYTeRvdv8kLkkW_NQM2Z-133" target="lYTeRvdv8kLkkW_NQM2Z-173" edge="1">
          <mxGeometry relative="1" as="geometry" />
        </mxCell>
        <mxCell id="lYTeRvdv8kLkkW_NQM2Z-203" style="edgeStyle=orthogonalEdgeStyle;rounded=0;orthogonalLoop=1;jettySize=auto;html=1;entryX=1;entryY=0.5;entryDx=0;entryDy=0;endArrow=none;endFill=0;" parent="1" source="lYTeRvdv8kLkkW_NQM2Z-133" target="lYTeRvdv8kLkkW_NQM2Z-162" edge="1">
          <mxGeometry relative="1" as="geometry">
            <Array as="points">
              <mxPoint x="680" y="560" />
            </Array>
          </mxGeometry>
        </mxCell>
        <mxCell id="lYTeRvdv8kLkkW_NQM2Z-204" style="edgeStyle=orthogonalEdgeStyle;rounded=0;orthogonalLoop=1;jettySize=auto;html=1;entryX=0;entryY=0.5;entryDx=0;entryDy=0;endArrow=none;endFill=0;" parent="1" source="lYTeRvdv8kLkkW_NQM2Z-133" target="lYTeRvdv8kLkkW_NQM2Z-161" edge="1">
          <mxGeometry relative="1" as="geometry">
            <Array as="points">
              <mxPoint x="710" y="560" />
            </Array>
          </mxGeometry>
        </mxCell>
        <mxCell id="lYTeRvdv8kLkkW_NQM2Z-261" style="edgeStyle=orthogonalEdgeStyle;rounded=0;orthogonalLoop=1;jettySize=auto;html=1;entryX=1;entryY=0.5;entryDx=0;entryDy=0;endArrow=none;endFill=0;" parent="1" source="lYTeRvdv8kLkkW_NQM2Z-133" target="lYTeRvdv8kLkkW_NQM2Z-160" edge="1">
          <mxGeometry relative="1" as="geometry">
            <Array as="points">
              <mxPoint x="710" y="680" />
            </Array>
          </mxGeometry>
        </mxCell>
        <mxCell id="lYTeRvdv8kLkkW_NQM2Z-262" style="edgeStyle=orthogonalEdgeStyle;rounded=0;orthogonalLoop=1;jettySize=auto;html=1;entryX=0.5;entryY=1;entryDx=0;entryDy=0;endArrow=none;endFill=0;" parent="1" source="lYTeRvdv8kLkkW_NQM2Z-133" target="lYTeRvdv8kLkkW_NQM2Z-260" edge="1">
          <mxGeometry relative="1" as="geometry" />
        </mxCell>
        <mxCell id="lYTeRvdv8kLkkW_NQM2Z-133" value="Aplicación" style="rounded=1;arcSize=10;whiteSpace=wrap;html=1;align=center;" parent="1" vertex="1">
          <mxGeometry x="643" y="600" width="100" height="40" as="geometry" />
        </mxCell>
        <mxCell id="lYTeRvdv8kLkkW_NQM2Z-134" value="Usuario" style="rounded=1;arcSize=10;whiteSpace=wrap;html=1;align=center;" parent="1" vertex="1">
          <mxGeometry x="643" y="820" width="100" height="40" as="geometry" />
        </mxCell>
        <mxCell id="lYTeRvdv8kLkkW_NQM2Z-135" style="edgeStyle=orthogonalEdgeStyle;rounded=0;orthogonalLoop=1;jettySize=auto;html=1;entryX=0.5;entryY=1;entryDx=0;entryDy=0;endArrow=none;endFill=0;" parent="1" source="lYTeRvdv8kLkkW_NQM2Z-141" target="lYTeRvdv8kLkkW_NQM2Z-164" edge="1">
          <mxGeometry relative="1" as="geometry" />
        </mxCell>
        <mxCell id="lYTeRvdv8kLkkW_NQM2Z-136" style="edgeStyle=orthogonalEdgeStyle;rounded=0;orthogonalLoop=1;jettySize=auto;html=1;entryX=1;entryY=0.5;entryDx=0;entryDy=0;endArrow=none;endFill=0;" parent="1" source="lYTeRvdv8kLkkW_NQM2Z-141" target="lYTeRvdv8kLkkW_NQM2Z-156" edge="1">
          <mxGeometry relative="1" as="geometry">
            <Array as="points">
              <mxPoint x="683" y="260" />
            </Array>
          </mxGeometry>
        </mxCell>
        <mxCell id="lYTeRvdv8kLkkW_NQM2Z-137" style="edgeStyle=orthogonalEdgeStyle;rounded=0;orthogonalLoop=1;jettySize=auto;html=1;entryX=0;entryY=0.5;entryDx=0;entryDy=0;endArrow=none;endFill=0;" parent="1" source="lYTeRvdv8kLkkW_NQM2Z-141" target="lYTeRvdv8kLkkW_NQM2Z-157" edge="1">
          <mxGeometry relative="1" as="geometry">
            <Array as="points">
              <mxPoint x="703" y="260" />
            </Array>
          </mxGeometry>
        </mxCell>
        <mxCell id="lYTeRvdv8kLkkW_NQM2Z-138" style="edgeStyle=orthogonalEdgeStyle;rounded=0;orthogonalLoop=1;jettySize=auto;html=1;entryX=1;entryY=0.5;entryDx=0;entryDy=0;endArrow=none;endFill=0;" parent="1" source="lYTeRvdv8kLkkW_NQM2Z-141" target="lYTeRvdv8kLkkW_NQM2Z-155" edge="1">
          <mxGeometry relative="1" as="geometry">
            <Array as="points">
              <mxPoint x="673" y="310" />
            </Array>
          </mxGeometry>
        </mxCell>
        <mxCell id="lYTeRvdv8kLkkW_NQM2Z-140" style="edgeStyle=orthogonalEdgeStyle;rounded=0;orthogonalLoop=1;jettySize=auto;html=1;entryX=0;entryY=0.5;entryDx=0;entryDy=0;endArrow=none;endFill=0;" parent="1" source="lYTeRvdv8kLkkW_NQM2Z-141" target="lYTeRvdv8kLkkW_NQM2Z-172" edge="1">
          <mxGeometry relative="1" as="geometry">
            <Array as="points">
              <mxPoint x="713" y="310" />
            </Array>
          </mxGeometry>
        </mxCell>
        <mxCell id="lYTeRvdv8kLkkW_NQM2Z-258" style="edgeStyle=orthogonalEdgeStyle;rounded=0;orthogonalLoop=1;jettySize=auto;html=1;entryX=1;entryY=0.5;entryDx=0;entryDy=0;endArrow=none;endFill=0;" parent="1" source="lYTeRvdv8kLkkW_NQM2Z-141" target="lYTeRvdv8kLkkW_NQM2Z-169" edge="1">
          <mxGeometry relative="1" as="geometry" />
        </mxCell>
        <mxCell id="DULyICYCI1vemp3DEOBY-2" style="edgeStyle=orthogonalEdgeStyle;rounded=0;orthogonalLoop=1;jettySize=auto;html=1;exitX=1;exitY=0.5;exitDx=0;exitDy=0;entryX=0;entryY=0.5;entryDx=0;entryDy=0;endArrow=none;endFill=0;" parent="1" source="lYTeRvdv8kLkkW_NQM2Z-141" target="DULyICYCI1vemp3DEOBY-1" edge="1">
          <mxGeometry relative="1" as="geometry" />
        </mxCell>
        <mxCell id="lYTeRvdv8kLkkW_NQM2Z-141" value="Producto" style="rounded=1;arcSize=10;whiteSpace=wrap;html=1;align=center;" parent="1" vertex="1">
          <mxGeometry x="643" y="350" width="100" height="40" as="geometry" />
        </mxCell>
        <mxCell id="lYTeRvdv8kLkkW_NQM2Z-144" style="edgeStyle=orthogonalEdgeStyle;rounded=0;orthogonalLoop=1;jettySize=auto;html=1;exitX=1;exitY=0.5;exitDx=0;exitDy=0;endArrow=none;endFill=0;" parent="1" source="lYTeRvdv8kLkkW_NQM2Z-145" edge="1">
          <mxGeometry relative="1" as="geometry">
            <mxPoint x="683.0588235294117" y="859.9999999999998" as="targetPoint" />
            <Array as="points">
              <mxPoint x="683" y="900" />
            </Array>
          </mxGeometry>
        </mxCell>
        <mxCell id="lYTeRvdv8kLkkW_NQM2Z-145" value="NombreUsuario" style="ellipse;whiteSpace=wrap;html=1;align=center;" parent="1" vertex="1">
          <mxGeometry x="563" y="880" width="100" height="40" as="geometry" />
        </mxCell>
        <mxCell id="lYTeRvdv8kLkkW_NQM2Z-146" style="edgeStyle=orthogonalEdgeStyle;rounded=0;orthogonalLoop=1;jettySize=auto;html=1;exitX=0.5;exitY=0;exitDx=0;exitDy=0;entryX=0.5;entryY=1;entryDx=0;entryDy=0;endArrow=none;endFill=0;" parent="1" source="lYTeRvdv8kLkkW_NQM2Z-147" target="lYTeRvdv8kLkkW_NQM2Z-134" edge="1">
          <mxGeometry relative="1" as="geometry">
            <Array as="points" />
          </mxGeometry>
        </mxCell>
        <mxCell id="lYTeRvdv8kLkkW_NQM2Z-147" value="ContraseñaUsuario" style="ellipse;whiteSpace=wrap;html=1;align=center;" parent="1" vertex="1">
          <mxGeometry x="643" y="930" width="100" height="40" as="geometry" />
        </mxCell>
        <mxCell id="lYTeRvdv8kLkkW_NQM2Z-148" style="edgeStyle=orthogonalEdgeStyle;rounded=0;orthogonalLoop=1;jettySize=auto;html=1;exitX=0;exitY=0.5;exitDx=0;exitDy=0;entryX=0.6;entryY=1;entryDx=0;entryDy=0;entryPerimeter=0;endArrow=none;endFill=0;" parent="1" source="lYTeRvdv8kLkkW_NQM2Z-149" target="lYTeRvdv8kLkkW_NQM2Z-134" edge="1">
          <mxGeometry relative="1" as="geometry" />
        </mxCell>
        <mxCell id="lYTeRvdv8kLkkW_NQM2Z-149" value="ID_RolUsuario" style="ellipse;whiteSpace=wrap;html=1;align=center;" parent="1" vertex="1">
          <mxGeometry x="727" y="880" width="100" height="40" as="geometry" />
        </mxCell>
        <mxCell id="lYTeRvdv8kLkkW_NQM2Z-150" style="edgeStyle=orthogonalEdgeStyle;rounded=0;orthogonalLoop=1;jettySize=auto;html=1;exitX=0.5;exitY=0;exitDx=0;exitDy=0;entryX=0.5;entryY=1;entryDx=0;entryDy=0;endArrow=none;endFill=0;" parent="1" source="lYTeRvdv8kLkkW_NQM2Z-152" target="lYTeRvdv8kLkkW_NQM2Z-133" edge="1">
          <mxGeometry relative="1" as="geometry" />
        </mxCell>
        <mxCell id="lYTeRvdv8kLkkW_NQM2Z-151" style="edgeStyle=orthogonalEdgeStyle;rounded=0;orthogonalLoop=1;jettySize=auto;html=1;exitX=0.5;exitY=1;exitDx=0;exitDy=0;endArrow=none;endFill=0;" parent="1" source="lYTeRvdv8kLkkW_NQM2Z-152" target="lYTeRvdv8kLkkW_NQM2Z-134" edge="1">
          <mxGeometry relative="1" as="geometry" />
        </mxCell>
        <mxCell id="lYTeRvdv8kLkkW_NQM2Z-152" value="Accede" style="shape=rhombus;perimeter=rhombusPerimeter;whiteSpace=wrap;html=1;align=center;" parent="1" vertex="1">
          <mxGeometry x="633" y="700" width="120" height="60" as="geometry" />
        </mxCell>
        <mxCell id="lYTeRvdv8kLkkW_NQM2Z-155" value="NombreProducto" style="ellipse;whiteSpace=wrap;html=1;align=center;" parent="1" vertex="1">
          <mxGeometry x="548" y="290" width="100" height="40" as="geometry" />
        </mxCell>
        <mxCell id="lYTeRvdv8kLkkW_NQM2Z-156" value="DetalleProducto" style="ellipse;whiteSpace=wrap;html=1;align=center;" parent="1" vertex="1">
          <mxGeometry x="548" y="240" width="100" height="40" as="geometry" />
        </mxCell>
        <mxCell id="lYTeRvdv8kLkkW_NQM2Z-157" value="PrecioUnitario" style="ellipse;whiteSpace=wrap;html=1;align=center;" parent="1" vertex="1">
          <mxGeometry x="738" y="240" width="100" height="40" as="geometry" />
        </mxCell>
        <mxCell id="lYTeRvdv8kLkkW_NQM2Z-159" value="1:n" style="text;html=1;align=center;verticalAlign=middle;resizable=0;points=[];autosize=1;strokeColor=none;fillColor=none;" parent="1" vertex="1">
          <mxGeometry x="593" y="715" width="40" height="30" as="geometry" />
        </mxCell>
        <mxCell id="lYTeRvdv8kLkkW_NQM2Z-160" value="&lt;span style=&quot;border-bottom: 1px dotted&quot;&gt;CódigoProducto&lt;/span&gt;" style="ellipse;whiteSpace=wrap;html=1;align=center;" parent="1" vertex="1">
          <mxGeometry x="743" y="660" width="100" height="40" as="geometry" />
        </mxCell>
        <mxCell id="lYTeRvdv8kLkkW_NQM2Z-161" value="&lt;span style=&quot;border-bottom: 1px dotted&quot;&gt;ID_Factura&lt;/span&gt;" style="ellipse;whiteSpace=wrap;html=1;align=center;" parent="1" vertex="1">
          <mxGeometry x="738" y="540" width="100" height="40" as="geometry" />
        </mxCell>
        <mxCell id="lYTeRvdv8kLkkW_NQM2Z-162" value="NombreUsuario" style="ellipse;whiteSpace=wrap;html=1;align=center;" parent="1" vertex="1">
          <mxGeometry x="543" y="540" width="100" height="40" as="geometry" />
        </mxCell>
        <mxCell id="lYTeRvdv8kLkkW_NQM2Z-163" value="0 = Admin&lt;br&gt;1 = Usuario" style="text;html=1;strokeColor=none;fillColor=none;align=center;verticalAlign=middle;whiteSpace=wrap;rounded=0;" parent="1" vertex="1">
          <mxGeometry x="727" y="850" width="100" height="30" as="geometry" />
        </mxCell>
        <mxCell id="lYTeRvdv8kLkkW_NQM2Z-164" value="&lt;u&gt;CódigoProducto&lt;/u&gt;" style="ellipse;whiteSpace=wrap;html=1;align=center;" parent="1" vertex="1">
          <mxGeometry x="643" y="160" width="100" height="40" as="geometry" />
        </mxCell>
        <mxCell id="lYTeRvdv8kLkkW_NQM2Z-165" style="edgeStyle=orthogonalEdgeStyle;rounded=0;orthogonalLoop=1;jettySize=auto;html=1;entryX=0;entryY=0.5;entryDx=0;entryDy=0;endArrow=none;endFill=0;" parent="1" source="lYTeRvdv8kLkkW_NQM2Z-167" target="lYTeRvdv8kLkkW_NQM2Z-171" edge="1">
          <mxGeometry relative="1" as="geometry">
            <Array as="points">
              <mxPoint x="261" y="430" />
            </Array>
          </mxGeometry>
        </mxCell>
        <mxCell id="lYTeRvdv8kLkkW_NQM2Z-166" style="edgeStyle=orthogonalEdgeStyle;rounded=0;orthogonalLoop=1;jettySize=auto;html=1;entryX=1;entryY=0.5;entryDx=0;entryDy=0;endArrow=none;endFill=0;exitX=0.391;exitY=1.034;exitDx=0;exitDy=0;exitPerimeter=0;" parent="1" source="lYTeRvdv8kLkkW_NQM2Z-167" target="lYTeRvdv8kLkkW_NQM2Z-170" edge="1">
          <mxGeometry relative="1" as="geometry">
            <Array as="points">
              <mxPoint x="241" y="430" />
            </Array>
          </mxGeometry>
        </mxCell>
        <mxCell id="DULyICYCI1vemp3DEOBY-6" style="edgeStyle=orthogonalEdgeStyle;shape=connector;rounded=0;orthogonalLoop=1;jettySize=auto;html=1;exitX=0.5;exitY=0;exitDx=0;exitDy=0;entryX=0.5;entryY=1;entryDx=0;entryDy=0;labelBackgroundColor=default;strokeColor=default;fontFamily=Helvetica;fontSize=11;fontColor=default;endArrow=none;endFill=0;" parent="1" source="lYTeRvdv8kLkkW_NQM2Z-167" target="DULyICYCI1vemp3DEOBY-4" edge="1">
          <mxGeometry relative="1" as="geometry" />
        </mxCell>
        <mxCell id="MU-CBqEzvpY1SloHTtcO-3" style="edgeStyle=orthogonalEdgeStyle;rounded=0;orthogonalLoop=1;jettySize=auto;html=1;endArrow=none;endFill=0;" parent="1" source="lYTeRvdv8kLkkW_NQM2Z-167" target="MU-CBqEzvpY1SloHTtcO-2" edge="1">
          <mxGeometry relative="1" as="geometry" />
        </mxCell>
        <mxCell id="lYTeRvdv8kLkkW_NQM2Z-167" value="Categoría" style="rounded=1;arcSize=10;whiteSpace=wrap;html=1;align=center;" parent="1" vertex="1">
          <mxGeometry x="201.5" y="350" width="100" height="40" as="geometry" />
        </mxCell>
        <mxCell id="lYTeRvdv8kLkkW_NQM2Z-259" style="edgeStyle=orthogonalEdgeStyle;rounded=0;orthogonalLoop=1;jettySize=auto;html=1;entryX=1;entryY=0.5;entryDx=0;entryDy=0;endArrow=none;endFill=0;" parent="1" source="lYTeRvdv8kLkkW_NQM2Z-169" target="lYTeRvdv8kLkkW_NQM2Z-167" edge="1">
          <mxGeometry relative="1" as="geometry" />
        </mxCell>
        <mxCell id="lYTeRvdv8kLkkW_NQM2Z-169" value="Pertenece" style="shape=rhombus;perimeter=rhombusPerimeter;whiteSpace=wrap;html=1;align=center;" parent="1" vertex="1">
          <mxGeometry x="410" y="340" width="120" height="60" as="geometry" />
        </mxCell>
        <mxCell id="lYTeRvdv8kLkkW_NQM2Z-170" value="Nombre" style="ellipse;whiteSpace=wrap;html=1;align=center;" parent="1" vertex="1">
          <mxGeometry x="117" y="410" width="100" height="40" as="geometry" />
        </mxCell>
        <mxCell id="lYTeRvdv8kLkkW_NQM2Z-171" value="&lt;u&gt;ID_Categoría&lt;/u&gt;" style="ellipse;whiteSpace=wrap;html=1;align=center;" parent="1" vertex="1">
          <mxGeometry x="280" y="410" width="100" height="40" as="geometry" />
        </mxCell>
        <mxCell id="lYTeRvdv8kLkkW_NQM2Z-172" value="&lt;span style=&quot;border-bottom: 1px dotted&quot;&gt;ID_Categoría&lt;/span&gt;" style="ellipse;whiteSpace=wrap;html=1;align=center;" parent="1" vertex="1">
          <mxGeometry x="738" y="290" width="100" height="40" as="geometry" />
        </mxCell>
        <mxCell id="lYTeRvdv8kLkkW_NQM2Z-180" style="edgeStyle=orthogonalEdgeStyle;rounded=0;orthogonalLoop=1;jettySize=auto;html=1;entryX=0;entryY=0.5;entryDx=0;entryDy=0;endArrow=none;endFill=0;" parent="1" source="lYTeRvdv8kLkkW_NQM2Z-173" target="lYTeRvdv8kLkkW_NQM2Z-175" edge="1">
          <mxGeometry relative="1" as="geometry" />
        </mxCell>
        <mxCell id="lYTeRvdv8kLkkW_NQM2Z-173" value="Produce" style="shape=rhombus;perimeter=rhombusPerimeter;whiteSpace=wrap;html=1;align=center;" parent="1" vertex="1">
          <mxGeometry x="838" y="590" width="120" height="60" as="geometry" />
        </mxCell>
        <mxCell id="lYTeRvdv8kLkkW_NQM2Z-183" style="edgeStyle=orthogonalEdgeStyle;rounded=0;orthogonalLoop=1;jettySize=auto;html=1;entryX=0.5;entryY=0;entryDx=0;entryDy=0;endArrow=none;endFill=0;" parent="1" source="lYTeRvdv8kLkkW_NQM2Z-175" target="lYTeRvdv8kLkkW_NQM2Z-182" edge="1">
          <mxGeometry relative="1" as="geometry" />
        </mxCell>
        <mxCell id="lYTeRvdv8kLkkW_NQM2Z-222" style="edgeStyle=orthogonalEdgeStyle;rounded=0;orthogonalLoop=1;jettySize=auto;html=1;entryX=1;entryY=0.5;entryDx=0;entryDy=0;endArrow=none;endFill=0;exitX=0.4;exitY=0.033;exitDx=0;exitDy=0;exitPerimeter=0;" parent="1" source="lYTeRvdv8kLkkW_NQM2Z-175" target="lYTeRvdv8kLkkW_NQM2Z-218" edge="1">
          <mxGeometry relative="1" as="geometry">
            <Array as="points">
              <mxPoint x="1090" y="470" />
            </Array>
          </mxGeometry>
        </mxCell>
        <mxCell id="lYTeRvdv8kLkkW_NQM2Z-224" style="edgeStyle=orthogonalEdgeStyle;rounded=0;orthogonalLoop=1;jettySize=auto;html=1;entryX=1;entryY=0.5;entryDx=0;entryDy=0;endArrow=none;endFill=0;exitX=0.303;exitY=-0.008;exitDx=0;exitDy=0;exitPerimeter=0;" parent="1" source="lYTeRvdv8kLkkW_NQM2Z-175" target="lYTeRvdv8kLkkW_NQM2Z-210" edge="1">
          <mxGeometry relative="1" as="geometry">
            <Array as="points">
              <mxPoint x="1080" y="520" />
            </Array>
          </mxGeometry>
        </mxCell>
        <mxCell id="lYTeRvdv8kLkkW_NQM2Z-225" style="edgeStyle=orthogonalEdgeStyle;rounded=0;orthogonalLoop=1;jettySize=auto;html=1;entryX=0;entryY=0.5;entryDx=0;entryDy=0;endArrow=none;endFill=0;" parent="1" source="lYTeRvdv8kLkkW_NQM2Z-175" target="lYTeRvdv8kLkkW_NQM2Z-217" edge="1">
          <mxGeometry relative="1" as="geometry">
            <Array as="points">
              <mxPoint x="1120" y="520" />
            </Array>
          </mxGeometry>
        </mxCell>
        <mxCell id="lYTeRvdv8kLkkW_NQM2Z-235" style="edgeStyle=orthogonalEdgeStyle;rounded=0;orthogonalLoop=1;jettySize=auto;html=1;entryX=0;entryY=0.5;entryDx=0;entryDy=0;endArrow=none;endFill=0;exitX=0.595;exitY=0.004;exitDx=0;exitDy=0;exitPerimeter=0;" parent="1" source="lYTeRvdv8kLkkW_NQM2Z-175" target="lYTeRvdv8kLkkW_NQM2Z-234" edge="1">
          <mxGeometry relative="1" as="geometry">
            <Array as="points">
              <mxPoint x="1109" y="470" />
            </Array>
          </mxGeometry>
        </mxCell>
        <mxCell id="lYTeRvdv8kLkkW_NQM2Z-237" style="edgeStyle=orthogonalEdgeStyle;rounded=0;orthogonalLoop=1;jettySize=auto;html=1;entryX=0.5;entryY=1;entryDx=0;entryDy=0;endArrow=none;endFill=0;" parent="1" source="lYTeRvdv8kLkkW_NQM2Z-175" target="lYTeRvdv8kLkkW_NQM2Z-247" edge="1">
          <mxGeometry relative="1" as="geometry">
            <mxPoint x="1100" y="395" as="targetPoint" />
          </mxGeometry>
        </mxCell>
        <mxCell id="lYTeRvdv8kLkkW_NQM2Z-175" value="Factura" style="rounded=1;arcSize=10;whiteSpace=wrap;html=1;align=center;" parent="1" vertex="1">
          <mxGeometry x="1050" y="600" width="100" height="40" as="geometry" />
        </mxCell>
        <mxCell id="lYTeRvdv8kLkkW_NQM2Z-229" style="edgeStyle=orthogonalEdgeStyle;rounded=0;orthogonalLoop=1;jettySize=auto;html=1;entryX=0.5;entryY=0;entryDx=0;entryDy=0;endArrow=none;endFill=0;" parent="1" source="lYTeRvdv8kLkkW_NQM2Z-182" target="lYTeRvdv8kLkkW_NQM2Z-228" edge="1">
          <mxGeometry relative="1" as="geometry" />
        </mxCell>
        <mxCell id="lYTeRvdv8kLkkW_NQM2Z-182" value="Genera" style="shape=rhombus;perimeter=rhombusPerimeter;whiteSpace=wrap;html=1;align=center;" parent="1" vertex="1">
          <mxGeometry x="1040" y="700" width="120" height="60" as="geometry" />
        </mxCell>
        <mxCell id="lYTeRvdv8kLkkW_NQM2Z-198" style="edgeStyle=orthogonalEdgeStyle;rounded=0;orthogonalLoop=1;jettySize=auto;html=1;entryX=0;entryY=0.5;entryDx=0;entryDy=0;endArrow=none;endFill=0;strokeColor=default;" parent="1" source="lYTeRvdv8kLkkW_NQM2Z-185" target="lYTeRvdv8kLkkW_NQM2Z-187" edge="1">
          <mxGeometry relative="1" as="geometry" />
        </mxCell>
        <mxCell id="lYTeRvdv8kLkkW_NQM2Z-266" style="edgeStyle=orthogonalEdgeStyle;rounded=0;orthogonalLoop=1;jettySize=auto;html=1;entryX=1;entryY=0.5;entryDx=0;entryDy=0;strokeColor=default;endArrow=none;endFill=0;" parent="1" source="lYTeRvdv8kLkkW_NQM2Z-185" target="lYTeRvdv8kLkkW_NQM2Z-256" edge="1">
          <mxGeometry relative="1" as="geometry">
            <Array as="points">
              <mxPoint x="240" y="560" />
            </Array>
          </mxGeometry>
        </mxCell>
        <mxCell id="lYTeRvdv8kLkkW_NQM2Z-267" style="edgeStyle=orthogonalEdgeStyle;rounded=0;orthogonalLoop=1;jettySize=auto;html=1;entryX=0;entryY=0.5;entryDx=0;entryDy=0;strokeColor=default;endArrow=none;endFill=0;" parent="1" source="lYTeRvdv8kLkkW_NQM2Z-185" target="lYTeRvdv8kLkkW_NQM2Z-257" edge="1">
          <mxGeometry relative="1" as="geometry">
            <Array as="points">
              <mxPoint x="260" y="560" />
            </Array>
          </mxGeometry>
        </mxCell>
        <mxCell id="ylq0Wh5do1DhNVSN07a9-79" style="edgeStyle=orthogonalEdgeStyle;rounded=0;orthogonalLoop=1;jettySize=auto;html=1;exitX=0.5;exitY=1;exitDx=0;exitDy=0;entryX=0.5;entryY=0;entryDx=0;entryDy=0;strokeColor=default;endArrow=none;endFill=0;" parent="1" source="lYTeRvdv8kLkkW_NQM2Z-185" target="ylq0Wh5do1DhNVSN07a9-77" edge="1">
          <mxGeometry relative="1" as="geometry" />
        </mxCell>
        <mxCell id="lYTeRvdv8kLkkW_NQM2Z-185" value="MetodoPago" style="rounded=1;arcSize=10;whiteSpace=wrap;html=1;align=center;strokeColor=default;" parent="1" vertex="1">
          <mxGeometry x="210" y="600" width="80" height="40" as="geometry" />
        </mxCell>
        <mxCell id="lYTeRvdv8kLkkW_NQM2Z-199" style="edgeStyle=orthogonalEdgeStyle;rounded=0;orthogonalLoop=1;jettySize=auto;html=1;entryX=0;entryY=0.5;entryDx=0;entryDy=0;endArrow=none;endFill=0;" parent="1" source="lYTeRvdv8kLkkW_NQM2Z-187" target="lYTeRvdv8kLkkW_NQM2Z-133" edge="1">
          <mxGeometry relative="1" as="geometry" />
        </mxCell>
        <mxCell id="lYTeRvdv8kLkkW_NQM2Z-187" value="Tiene" style="shape=rhombus;perimeter=rhombusPerimeter;whiteSpace=wrap;html=1;align=center;" parent="1" vertex="1">
          <mxGeometry x="410" y="590" width="120" height="60" as="geometry" />
        </mxCell>
        <mxCell id="lYTeRvdv8kLkkW_NQM2Z-210" value="ID_Factura" style="ellipse;whiteSpace=wrap;html=1;align=center;fontStyle=4;" parent="1" vertex="1">
          <mxGeometry x="958" y="500" width="100" height="40" as="geometry" />
        </mxCell>
        <mxCell id="lYTeRvdv8kLkkW_NQM2Z-217" value="PrecioTotalCuenta" style="ellipse;whiteSpace=wrap;html=1;align=center;" parent="1" vertex="1">
          <mxGeometry x="1141" y="500" width="100" height="40" as="geometry" />
        </mxCell>
        <mxCell id="lYTeRvdv8kLkkW_NQM2Z-218" value="FechaRealización" style="ellipse;whiteSpace=wrap;html=1;align=center;" parent="1" vertex="1">
          <mxGeometry x="958" y="450" width="100" height="40" as="geometry" />
        </mxCell>
        <mxCell id="lYTeRvdv8kLkkW_NQM2Z-270" style="edgeStyle=orthogonalEdgeStyle;rounded=0;orthogonalLoop=1;jettySize=auto;html=1;entryX=1;entryY=0.5;entryDx=0;entryDy=0;endArrow=none;endFill=0;" parent="1" source="lYTeRvdv8kLkkW_NQM2Z-228" target="lYTeRvdv8kLkkW_NQM2Z-242" edge="1">
          <mxGeometry relative="1" as="geometry">
            <Array as="points">
              <mxPoint x="1090" y="900" />
            </Array>
          </mxGeometry>
        </mxCell>
        <mxCell id="lYTeRvdv8kLkkW_NQM2Z-271" style="edgeStyle=orthogonalEdgeStyle;rounded=0;orthogonalLoop=1;jettySize=auto;html=1;entryX=0;entryY=0.5;entryDx=0;entryDy=0;endArrow=none;endFill=0;" parent="1" source="lYTeRvdv8kLkkW_NQM2Z-228" target="lYTeRvdv8kLkkW_NQM2Z-232" edge="1">
          <mxGeometry relative="1" as="geometry">
            <Array as="points">
              <mxPoint x="1110" y="900" />
            </Array>
          </mxGeometry>
        </mxCell>
        <mxCell id="lYTeRvdv8kLkkW_NQM2Z-228" value="Recibo" style="rounded=1;arcSize=10;whiteSpace=wrap;html=1;align=center;" parent="1" vertex="1">
          <mxGeometry x="1050" y="820" width="100" height="40" as="geometry" />
        </mxCell>
        <mxCell id="lYTeRvdv8kLkkW_NQM2Z-232" value="UrlArchivo" style="ellipse;whiteSpace=wrap;html=1;align=center;" parent="1" vertex="1">
          <mxGeometry x="1141" y="880" width="100" height="40" as="geometry" />
        </mxCell>
        <mxCell id="lYTeRvdv8kLkkW_NQM2Z-234" value="&lt;span style=&quot;border-bottom: 1px dotted&quot;&gt;ID_Recibo&lt;/span&gt;" style="ellipse;whiteSpace=wrap;html=1;align=center;" parent="1" vertex="1">
          <mxGeometry x="1141" y="450" width="100" height="40" as="geometry" />
        </mxCell>
        <mxCell id="lYTeRvdv8kLkkW_NQM2Z-242" value="&lt;u&gt;ID_Recibo&lt;/u&gt;" style="ellipse;whiteSpace=wrap;html=1;align=center;" parent="1" vertex="1">
          <mxGeometry x="950" y="880" width="100" height="40" as="geometry" />
        </mxCell>
        <mxCell id="lYTeRvdv8kLkkW_NQM2Z-252" style="edgeStyle=orthogonalEdgeStyle;rounded=0;orthogonalLoop=1;jettySize=auto;html=1;entryX=0.5;entryY=1;entryDx=0;entryDy=0;endArrow=none;endFill=0;" parent="1" source="lYTeRvdv8kLkkW_NQM2Z-247" target="lYTeRvdv8kLkkW_NQM2Z-251" edge="1">
          <mxGeometry relative="1" as="geometry" />
        </mxCell>
        <mxCell id="lYTeRvdv8kLkkW_NQM2Z-253" style="edgeStyle=orthogonalEdgeStyle;rounded=0;orthogonalLoop=1;jettySize=auto;html=1;entryX=1;entryY=0.5;entryDx=0;entryDy=0;endArrow=none;endFill=0;" parent="1" source="lYTeRvdv8kLkkW_NQM2Z-247" target="lYTeRvdv8kLkkW_NQM2Z-249" edge="1">
          <mxGeometry relative="1" as="geometry">
            <Array as="points">
              <mxPoint x="1089" y="370" />
            </Array>
          </mxGeometry>
        </mxCell>
        <mxCell id="lYTeRvdv8kLkkW_NQM2Z-254" style="edgeStyle=orthogonalEdgeStyle;rounded=0;orthogonalLoop=1;jettySize=auto;html=1;entryX=0;entryY=0.5;entryDx=0;entryDy=0;endArrow=none;endFill=0;" parent="1" source="lYTeRvdv8kLkkW_NQM2Z-247" target="lYTeRvdv8kLkkW_NQM2Z-250" edge="1">
          <mxGeometry relative="1" as="geometry">
            <Array as="points">
              <mxPoint x="1109" y="370" />
            </Array>
          </mxGeometry>
        </mxCell>
        <mxCell id="lYTeRvdv8kLkkW_NQM2Z-247" value="Producto" style="ellipse;shape=doubleEllipse;margin=3;whiteSpace=wrap;html=1;align=center;" parent="1" vertex="1">
          <mxGeometry x="1049" y="400" width="100" height="40" as="geometry" />
        </mxCell>
        <mxCell id="lYTeRvdv8kLkkW_NQM2Z-249" value="CantidadProducto" style="ellipse;whiteSpace=wrap;html=1;align=center;" parent="1" vertex="1">
          <mxGeometry x="949" y="350" width="100" height="40" as="geometry" />
        </mxCell>
        <mxCell id="lYTeRvdv8kLkkW_NQM2Z-250" value="&lt;span style=&quot;border-bottom: 1px dotted&quot;&gt;CódigoProducto&lt;/span&gt;" style="ellipse;whiteSpace=wrap;html=1;align=center;" parent="1" vertex="1">
          <mxGeometry x="1140" y="350" width="100" height="40" as="geometry" />
        </mxCell>
        <mxCell id="lYTeRvdv8kLkkW_NQM2Z-251" value="PrecioProducto" style="ellipse;whiteSpace=wrap;html=1;align=center;" parent="1" vertex="1">
          <mxGeometry x="1034" y="280" width="130" height="50" as="geometry" />
        </mxCell>
        <mxCell id="lYTeRvdv8kLkkW_NQM2Z-256" value="ID_metodoPago" style="ellipse;whiteSpace=wrap;html=1;align=center;fontStyle=4;" parent="1" vertex="1">
          <mxGeometry x="118.5" y="540" width="100" height="40" as="geometry" />
        </mxCell>
        <mxCell id="lYTeRvdv8kLkkW_NQM2Z-257" value="Nombre" style="ellipse;whiteSpace=wrap;html=1;align=center;" parent="1" vertex="1">
          <mxGeometry x="280" y="540" width="100" height="40" as="geometry" />
        </mxCell>
        <mxCell id="lYTeRvdv8kLkkW_NQM2Z-263" style="edgeStyle=orthogonalEdgeStyle;rounded=0;orthogonalLoop=1;jettySize=auto;html=1;entryX=0.5;entryY=1;entryDx=0;entryDy=0;endArrow=none;endFill=0;" parent="1" source="lYTeRvdv8kLkkW_NQM2Z-260" target="lYTeRvdv8kLkkW_NQM2Z-141" edge="1">
          <mxGeometry relative="1" as="geometry" />
        </mxCell>
        <mxCell id="lYTeRvdv8kLkkW_NQM2Z-260" value="Tiene" style="shape=rhombus;perimeter=rhombusPerimeter;whiteSpace=wrap;html=1;align=center;" parent="1" vertex="1">
          <mxGeometry x="633" y="460" width="120" height="60" as="geometry" />
        </mxCell>
        <mxCell id="ylq0Wh5do1DhNVSN07a9-77" value="Descuento" style="ellipse;whiteSpace=wrap;html=1;align=center;" parent="1" vertex="1">
          <mxGeometry x="190" y="670" width="120" height="40" as="geometry" />
        </mxCell>
        <mxCell id="ylq0Wh5do1DhNVSN07a9-82" style="edgeStyle=orthogonalEdgeStyle;shape=connector;rounded=0;orthogonalLoop=1;jettySize=auto;html=1;exitX=1;exitY=0.5;exitDx=0;exitDy=0;entryX=0.375;entryY=1.013;entryDx=0;entryDy=0;entryPerimeter=0;labelBackgroundColor=default;strokeColor=default;fontFamily=Helvetica;fontSize=11;fontColor=default;endArrow=none;endFill=0;" parent="1" source="ylq0Wh5do1DhNVSN07a9-81" target="lYTeRvdv8kLkkW_NQM2Z-133" edge="1">
          <mxGeometry relative="1" as="geometry" />
        </mxCell>
        <mxCell id="ylq0Wh5do1DhNVSN07a9-81" value="&lt;span style=&quot;border-bottom: 1px dotted&quot;&gt;ID_metodoPago&lt;/span&gt;" style="ellipse;whiteSpace=wrap;html=1;align=center;" parent="1" vertex="1">
          <mxGeometry x="548" y="660" width="100" height="40" as="geometry" />
        </mxCell>
        <mxCell id="l4XwQl3PcMBx6Q5eZ_6Q-120" value="Aplicación" style="shape=table;startSize=30;container=1;collapsible=1;childLayout=tableLayout;fixedRows=1;rowLines=0;fontStyle=1;align=center;resizeLast=1;html=1;whiteSpace=wrap;" parent="1" vertex="1">
          <mxGeometry x="1820" y="610" width="200" height="180" as="geometry" />
        </mxCell>
        <mxCell id="l4XwQl3PcMBx6Q5eZ_6Q-130" value="" style="shape=tableRow;horizontal=0;startSize=0;swimlaneHead=0;swimlaneBody=0;fillColor=none;collapsible=0;dropTarget=0;points=[[0,0.5],[1,0.5]];portConstraint=eastwest;top=0;left=0;right=0;bottom=0;html=1;" parent="l4XwQl3PcMBx6Q5eZ_6Q-120" vertex="1">
          <mxGeometry y="30" width="200" height="30" as="geometry" />
        </mxCell>
        <mxCell id="l4XwQl3PcMBx6Q5eZ_6Q-131" value="FK" style="shape=partialRectangle;connectable=0;fillColor=none;top=0;left=0;bottom=0;right=0;fontStyle=1;overflow=hidden;html=1;whiteSpace=wrap;" parent="l4XwQl3PcMBx6Q5eZ_6Q-130" vertex="1">
          <mxGeometry width="30" height="30" as="geometry">
            <mxRectangle width="30" height="30" as="alternateBounds" />
          </mxGeometry>
        </mxCell>
        <mxCell id="l4XwQl3PcMBx6Q5eZ_6Q-132" value="id_metodopago" style="shape=partialRectangle;connectable=0;fillColor=none;top=0;left=0;bottom=0;right=0;align=left;spacingLeft=6;fontStyle=5;overflow=hidden;html=1;whiteSpace=wrap;" parent="l4XwQl3PcMBx6Q5eZ_6Q-130" vertex="1">
          <mxGeometry x="30" width="170" height="30" as="geometry">
            <mxRectangle width="170" height="30" as="alternateBounds" />
          </mxGeometry>
        </mxCell>
        <mxCell id="l4XwQl3PcMBx6Q5eZ_6Q-121" value="" style="shape=tableRow;horizontal=0;startSize=0;swimlaneHead=0;swimlaneBody=0;fillColor=none;collapsible=0;dropTarget=0;points=[[0,0.5],[1,0.5]];portConstraint=eastwest;top=0;left=0;right=0;bottom=0;html=1;" parent="l4XwQl3PcMBx6Q5eZ_6Q-120" vertex="1">
          <mxGeometry y="60" width="200" height="30" as="geometry" />
        </mxCell>
        <mxCell id="l4XwQl3PcMBx6Q5eZ_6Q-122" value="FK" style="shape=partialRectangle;connectable=0;fillColor=none;top=0;left=0;bottom=0;right=0;fontStyle=1;overflow=hidden;html=1;whiteSpace=wrap;" parent="l4XwQl3PcMBx6Q5eZ_6Q-121" vertex="1">
          <mxGeometry width="30" height="30" as="geometry">
            <mxRectangle width="30" height="30" as="alternateBounds" />
          </mxGeometry>
        </mxCell>
        <mxCell id="l4XwQl3PcMBx6Q5eZ_6Q-123" value="id_factura INT" style="shape=partialRectangle;connectable=0;fillColor=none;top=0;left=0;bottom=0;right=0;align=left;spacingLeft=6;fontStyle=5;overflow=hidden;html=1;whiteSpace=wrap;" parent="l4XwQl3PcMBx6Q5eZ_6Q-121" vertex="1">
          <mxGeometry x="30" width="170" height="30" as="geometry">
            <mxRectangle width="170" height="30" as="alternateBounds" />
          </mxGeometry>
        </mxCell>
        <mxCell id="aSvNotybGgadGFKK0nYT-16" value="" style="shape=tableRow;horizontal=0;startSize=0;swimlaneHead=0;swimlaneBody=0;fillColor=none;collapsible=0;dropTarget=0;points=[[0,0.5],[1,0.5]];portConstraint=eastwest;top=0;left=0;right=0;bottom=0;html=1;" parent="l4XwQl3PcMBx6Q5eZ_6Q-120" vertex="1">
          <mxGeometry y="90" width="200" height="30" as="geometry" />
        </mxCell>
        <mxCell id="aSvNotybGgadGFKK0nYT-17" value="FK" style="shape=partialRectangle;connectable=0;fillColor=none;top=0;left=0;bottom=0;right=0;fontStyle=1;overflow=hidden;html=1;whiteSpace=wrap;" parent="aSvNotybGgadGFKK0nYT-16" vertex="1">
          <mxGeometry width="30" height="30" as="geometry">
            <mxRectangle width="30" height="30" as="alternateBounds" />
          </mxGeometry>
        </mxCell>
        <mxCell id="aSvNotybGgadGFKK0nYT-18" value="id_productocompra INT" style="shape=partialRectangle;connectable=0;fillColor=none;top=0;left=0;bottom=0;right=0;align=left;spacingLeft=6;fontStyle=5;overflow=hidden;html=1;whiteSpace=wrap;" parent="aSvNotybGgadGFKK0nYT-16" vertex="1">
          <mxGeometry x="30" width="170" height="30" as="geometry">
            <mxRectangle width="170" height="30" as="alternateBounds" />
          </mxGeometry>
        </mxCell>
        <mxCell id="l4XwQl3PcMBx6Q5eZ_6Q-124" value="" style="shape=tableRow;horizontal=0;startSize=0;swimlaneHead=0;swimlaneBody=0;fillColor=none;collapsible=0;dropTarget=0;points=[[0,0.5],[1,0.5]];portConstraint=eastwest;top=0;left=0;right=0;bottom=0;html=1;" parent="l4XwQl3PcMBx6Q5eZ_6Q-120" vertex="1">
          <mxGeometry y="120" width="200" height="30" as="geometry" />
        </mxCell>
        <mxCell id="l4XwQl3PcMBx6Q5eZ_6Q-125" value="FK" style="shape=partialRectangle;connectable=0;fillColor=none;top=0;left=0;bottom=0;right=0;fontStyle=1;overflow=hidden;html=1;whiteSpace=wrap;" parent="l4XwQl3PcMBx6Q5eZ_6Q-124" vertex="1">
          <mxGeometry width="30" height="30" as="geometry">
            <mxRectangle width="30" height="30" as="alternateBounds" />
          </mxGeometry>
        </mxCell>
        <mxCell id="l4XwQl3PcMBx6Q5eZ_6Q-126" value="código_producto CHAR(25)" style="shape=partialRectangle;connectable=0;fillColor=none;top=0;left=0;bottom=0;right=0;align=left;spacingLeft=6;fontStyle=5;overflow=hidden;html=1;whiteSpace=wrap;" parent="l4XwQl3PcMBx6Q5eZ_6Q-124" vertex="1">
          <mxGeometry x="30" width="170" height="30" as="geometry">
            <mxRectangle width="170" height="30" as="alternateBounds" />
          </mxGeometry>
        </mxCell>
        <mxCell id="l4XwQl3PcMBx6Q5eZ_6Q-127" value="" style="shape=tableRow;horizontal=0;startSize=0;swimlaneHead=0;swimlaneBody=0;fillColor=none;collapsible=0;dropTarget=0;points=[[0,0.5],[1,0.5]];portConstraint=eastwest;top=0;left=0;right=0;bottom=0;html=1;" parent="l4XwQl3PcMBx6Q5eZ_6Q-120" vertex="1">
          <mxGeometry y="150" width="200" height="30" as="geometry" />
        </mxCell>
        <mxCell id="l4XwQl3PcMBx6Q5eZ_6Q-128" value="FK" style="shape=partialRectangle;connectable=0;fillColor=none;top=0;left=0;bottom=0;right=0;fontStyle=1;overflow=hidden;html=1;whiteSpace=wrap;" parent="l4XwQl3PcMBx6Q5eZ_6Q-127" vertex="1">
          <mxGeometry width="30" height="30" as="geometry">
            <mxRectangle width="30" height="30" as="alternateBounds" />
          </mxGeometry>
        </mxCell>
        <mxCell id="l4XwQl3PcMBx6Q5eZ_6Q-129" value="nombreusuario CHAR(15)" style="shape=partialRectangle;connectable=0;fillColor=none;top=0;left=0;bottom=0;right=0;align=left;spacingLeft=6;fontStyle=5;overflow=hidden;html=1;whiteSpace=wrap;" parent="l4XwQl3PcMBx6Q5eZ_6Q-127" vertex="1">
          <mxGeometry x="30" width="170" height="30" as="geometry">
            <mxRectangle width="170" height="30" as="alternateBounds" />
          </mxGeometry>
        </mxCell>
        <mxCell id="l4XwQl3PcMBx6Q5eZ_6Q-133" value="Usuario" style="shape=table;startSize=30;container=1;collapsible=1;childLayout=tableLayout;fixedRows=1;rowLines=0;fontStyle=1;align=center;resizeLast=1;html=1;whiteSpace=wrap;" parent="1" vertex="1">
          <mxGeometry x="1510" y="730" width="220" height="120" as="geometry" />
        </mxCell>
        <mxCell id="l4XwQl3PcMBx6Q5eZ_6Q-134" value="" style="shape=tableRow;horizontal=0;startSize=0;swimlaneHead=0;swimlaneBody=0;fillColor=none;collapsible=0;dropTarget=0;points=[[0,0.5],[1,0.5]];portConstraint=eastwest;top=0;left=0;right=0;bottom=1;html=1;" parent="l4XwQl3PcMBx6Q5eZ_6Q-133" vertex="1">
          <mxGeometry y="30" width="220" height="30" as="geometry" />
        </mxCell>
        <mxCell id="l4XwQl3PcMBx6Q5eZ_6Q-135" value="PK" style="shape=partialRectangle;connectable=0;fillColor=none;top=0;left=0;bottom=0;right=0;fontStyle=1;overflow=hidden;html=1;whiteSpace=wrap;" parent="l4XwQl3PcMBx6Q5eZ_6Q-134" vertex="1">
          <mxGeometry width="30" height="30" as="geometry">
            <mxRectangle width="30" height="30" as="alternateBounds" />
          </mxGeometry>
        </mxCell>
        <mxCell id="l4XwQl3PcMBx6Q5eZ_6Q-136" value="Nombre CHAR(15)" style="shape=partialRectangle;connectable=0;fillColor=none;top=0;left=0;bottom=0;right=0;align=left;spacingLeft=6;fontStyle=5;overflow=hidden;html=1;whiteSpace=wrap;" parent="l4XwQl3PcMBx6Q5eZ_6Q-134" vertex="1">
          <mxGeometry x="30" width="190" height="30" as="geometry">
            <mxRectangle width="190" height="30" as="alternateBounds" />
          </mxGeometry>
        </mxCell>
        <mxCell id="l4XwQl3PcMBx6Q5eZ_6Q-140" value="" style="shape=tableRow;horizontal=0;startSize=0;swimlaneHead=0;swimlaneBody=0;fillColor=none;collapsible=0;dropTarget=0;points=[[0,0.5],[1,0.5]];portConstraint=eastwest;top=0;left=0;right=0;bottom=0;html=1;" parent="l4XwQl3PcMBx6Q5eZ_6Q-133" vertex="1">
          <mxGeometry y="60" width="220" height="30" as="geometry" />
        </mxCell>
        <mxCell id="l4XwQl3PcMBx6Q5eZ_6Q-141" value="" style="shape=partialRectangle;connectable=0;fillColor=none;top=0;left=0;bottom=0;right=0;editable=1;overflow=hidden;html=1;whiteSpace=wrap;" parent="l4XwQl3PcMBx6Q5eZ_6Q-140" vertex="1">
          <mxGeometry width="30" height="30" as="geometry">
            <mxRectangle width="30" height="30" as="alternateBounds" />
          </mxGeometry>
        </mxCell>
        <mxCell id="l4XwQl3PcMBx6Q5eZ_6Q-142" value="Contraseña VARCHAR(25)" style="shape=partialRectangle;connectable=0;fillColor=none;top=0;left=0;bottom=0;right=0;align=left;spacingLeft=6;overflow=hidden;html=1;whiteSpace=wrap;" parent="l4XwQl3PcMBx6Q5eZ_6Q-140" vertex="1">
          <mxGeometry x="30" width="190" height="30" as="geometry">
            <mxRectangle width="190" height="30" as="alternateBounds" />
          </mxGeometry>
        </mxCell>
        <mxCell id="l4XwQl3PcMBx6Q5eZ_6Q-143" value="" style="shape=tableRow;horizontal=0;startSize=0;swimlaneHead=0;swimlaneBody=0;fillColor=none;collapsible=0;dropTarget=0;points=[[0,0.5],[1,0.5]];portConstraint=eastwest;top=0;left=0;right=0;bottom=0;html=1;" parent="l4XwQl3PcMBx6Q5eZ_6Q-133" vertex="1">
          <mxGeometry y="90" width="220" height="30" as="geometry" />
        </mxCell>
        <mxCell id="l4XwQl3PcMBx6Q5eZ_6Q-144" value="" style="shape=partialRectangle;connectable=0;fillColor=none;top=0;left=0;bottom=0;right=0;editable=1;overflow=hidden;html=1;whiteSpace=wrap;" parent="l4XwQl3PcMBx6Q5eZ_6Q-143" vertex="1">
          <mxGeometry width="30" height="30" as="geometry">
            <mxRectangle width="30" height="30" as="alternateBounds" />
          </mxGeometry>
        </mxCell>
        <mxCell id="l4XwQl3PcMBx6Q5eZ_6Q-145" value="id_rol TINYINT" style="shape=partialRectangle;connectable=0;fillColor=none;top=0;left=0;bottom=0;right=0;align=left;spacingLeft=6;overflow=hidden;html=1;whiteSpace=wrap;" parent="l4XwQl3PcMBx6Q5eZ_6Q-143" vertex="1">
          <mxGeometry x="30" width="190" height="30" as="geometry">
            <mxRectangle width="190" height="30" as="alternateBounds" />
          </mxGeometry>
        </mxCell>
        <mxCell id="l4XwQl3PcMBx6Q5eZ_6Q-146" value="Factura" style="shape=table;startSize=30;container=1;collapsible=1;childLayout=tableLayout;fixedRows=1;rowLines=0;fontStyle=1;align=center;resizeLast=1;html=1;whiteSpace=wrap;" parent="1" vertex="1">
          <mxGeometry x="2120.06" y="490" width="220" height="150" as="geometry" />
        </mxCell>
        <mxCell id="l4XwQl3PcMBx6Q5eZ_6Q-147" value="" style="shape=tableRow;horizontal=0;startSize=0;swimlaneHead=0;swimlaneBody=0;fillColor=none;collapsible=0;dropTarget=0;points=[[0,0.5],[1,0.5]];portConstraint=eastwest;top=0;left=0;right=0;bottom=0;html=1;" parent="l4XwQl3PcMBx6Q5eZ_6Q-146" vertex="1">
          <mxGeometry y="30" width="220" height="30" as="geometry" />
        </mxCell>
        <mxCell id="l4XwQl3PcMBx6Q5eZ_6Q-148" value="PK" style="shape=partialRectangle;connectable=0;fillColor=none;top=0;left=0;bottom=0;right=0;fontStyle=1;overflow=hidden;html=1;whiteSpace=wrap;" parent="l4XwQl3PcMBx6Q5eZ_6Q-147" vertex="1">
          <mxGeometry width="30.059999999999945" height="30" as="geometry">
            <mxRectangle width="30.059999999999945" height="30" as="alternateBounds" />
          </mxGeometry>
        </mxCell>
        <mxCell id="l4XwQl3PcMBx6Q5eZ_6Q-149" value="id_factura INT" style="shape=partialRectangle;connectable=0;fillColor=none;top=0;left=0;bottom=0;right=0;align=left;spacingLeft=6;fontStyle=5;overflow=hidden;html=1;whiteSpace=wrap;" parent="l4XwQl3PcMBx6Q5eZ_6Q-147" vertex="1">
          <mxGeometry x="30.059999999999945" width="189.94000000000005" height="30" as="geometry">
            <mxRectangle width="189.94000000000005" height="30" as="alternateBounds" />
          </mxGeometry>
        </mxCell>
        <mxCell id="l4XwQl3PcMBx6Q5eZ_6Q-150" value="" style="shape=tableRow;horizontal=0;startSize=0;swimlaneHead=0;swimlaneBody=0;fillColor=none;collapsible=0;dropTarget=0;points=[[0,0.5],[1,0.5]];portConstraint=eastwest;top=0;left=0;right=0;bottom=1;html=1;" parent="l4XwQl3PcMBx6Q5eZ_6Q-146" vertex="1">
          <mxGeometry y="60" width="220" height="30" as="geometry" />
        </mxCell>
        <mxCell id="l4XwQl3PcMBx6Q5eZ_6Q-151" value="FK" style="shape=partialRectangle;connectable=0;fillColor=none;top=0;left=0;bottom=0;right=0;fontStyle=1;overflow=hidden;html=1;whiteSpace=wrap;" parent="l4XwQl3PcMBx6Q5eZ_6Q-150" vertex="1">
          <mxGeometry width="30.059999999999945" height="30" as="geometry">
            <mxRectangle width="30.059999999999945" height="30" as="alternateBounds" />
          </mxGeometry>
        </mxCell>
        <mxCell id="l4XwQl3PcMBx6Q5eZ_6Q-152" value="id_recibo INT" style="shape=partialRectangle;connectable=0;fillColor=none;top=0;left=0;bottom=0;right=0;align=left;spacingLeft=6;fontStyle=5;overflow=hidden;html=1;whiteSpace=wrap;" parent="l4XwQl3PcMBx6Q5eZ_6Q-150" vertex="1">
          <mxGeometry x="30.059999999999945" width="189.94000000000005" height="30" as="geometry">
            <mxRectangle width="189.94000000000005" height="30" as="alternateBounds" />
          </mxGeometry>
        </mxCell>
        <mxCell id="l4XwQl3PcMBx6Q5eZ_6Q-153" value="" style="shape=tableRow;horizontal=0;startSize=0;swimlaneHead=0;swimlaneBody=0;fillColor=none;collapsible=0;dropTarget=0;points=[[0,0.5],[1,0.5]];portConstraint=eastwest;top=0;left=0;right=0;bottom=0;html=1;" parent="l4XwQl3PcMBx6Q5eZ_6Q-146" vertex="1">
          <mxGeometry y="90" width="220" height="30" as="geometry" />
        </mxCell>
        <mxCell id="l4XwQl3PcMBx6Q5eZ_6Q-154" value="" style="shape=partialRectangle;connectable=0;fillColor=none;top=0;left=0;bottom=0;right=0;editable=1;overflow=hidden;html=1;whiteSpace=wrap;" parent="l4XwQl3PcMBx6Q5eZ_6Q-153" vertex="1">
          <mxGeometry width="30.059999999999945" height="30" as="geometry">
            <mxRectangle width="30.059999999999945" height="30" as="alternateBounds" />
          </mxGeometry>
        </mxCell>
        <mxCell id="l4XwQl3PcMBx6Q5eZ_6Q-155" value="fecharealización DATETIME" style="shape=partialRectangle;connectable=0;fillColor=none;top=0;left=0;bottom=0;right=0;align=left;spacingLeft=6;overflow=hidden;html=1;whiteSpace=wrap;" parent="l4XwQl3PcMBx6Q5eZ_6Q-153" vertex="1">
          <mxGeometry x="30.059999999999945" width="189.94000000000005" height="30" as="geometry">
            <mxRectangle width="189.94000000000005" height="30" as="alternateBounds" />
          </mxGeometry>
        </mxCell>
        <mxCell id="l4XwQl3PcMBx6Q5eZ_6Q-159" value="" style="shape=tableRow;horizontal=0;startSize=0;swimlaneHead=0;swimlaneBody=0;fillColor=none;collapsible=0;dropTarget=0;points=[[0,0.5],[1,0.5]];portConstraint=eastwest;top=0;left=0;right=0;bottom=0;html=1;" parent="l4XwQl3PcMBx6Q5eZ_6Q-146" vertex="1">
          <mxGeometry y="120" width="220" height="30" as="geometry" />
        </mxCell>
        <mxCell id="l4XwQl3PcMBx6Q5eZ_6Q-160" value="" style="shape=partialRectangle;connectable=0;fillColor=none;top=0;left=0;bottom=0;right=0;editable=1;overflow=hidden;html=1;whiteSpace=wrap;" parent="l4XwQl3PcMBx6Q5eZ_6Q-159" vertex="1">
          <mxGeometry width="30.059999999999945" height="30" as="geometry">
            <mxRectangle width="30.059999999999945" height="30" as="alternateBounds" />
          </mxGeometry>
        </mxCell>
        <mxCell id="l4XwQl3PcMBx6Q5eZ_6Q-161" value="totalcuenta DECIMAL(15, 3)" style="shape=partialRectangle;connectable=0;fillColor=none;top=0;left=0;bottom=0;right=0;align=left;spacingLeft=6;overflow=hidden;html=1;whiteSpace=wrap;" parent="l4XwQl3PcMBx6Q5eZ_6Q-159" vertex="1">
          <mxGeometry x="30.059999999999945" width="189.94000000000005" height="30" as="geometry">
            <mxRectangle width="189.94000000000005" height="30" as="alternateBounds" />
          </mxGeometry>
        </mxCell>
        <mxCell id="l4XwQl3PcMBx6Q5eZ_6Q-162" value="Recibo" style="shape=table;startSize=30;container=1;collapsible=1;childLayout=tableLayout;fixedRows=1;rowLines=0;fontStyle=1;align=center;resizeLast=1;html=1;whiteSpace=wrap;" parent="1" vertex="1">
          <mxGeometry x="2120.06" y="380" width="220" height="90" as="geometry" />
        </mxCell>
        <mxCell id="l4XwQl3PcMBx6Q5eZ_6Q-166" value="" style="shape=tableRow;horizontal=0;startSize=0;swimlaneHead=0;swimlaneBody=0;fillColor=none;collapsible=0;dropTarget=0;points=[[0,0.5],[1,0.5]];portConstraint=eastwest;top=0;left=0;right=0;bottom=1;html=1;" parent="l4XwQl3PcMBx6Q5eZ_6Q-162" vertex="1">
          <mxGeometry y="30" width="220" height="30" as="geometry" />
        </mxCell>
        <mxCell id="l4XwQl3PcMBx6Q5eZ_6Q-167" value="FK" style="shape=partialRectangle;connectable=0;fillColor=none;top=0;left=0;bottom=0;right=0;fontStyle=1;overflow=hidden;html=1;whiteSpace=wrap;" parent="l4XwQl3PcMBx6Q5eZ_6Q-166" vertex="1">
          <mxGeometry width="40.059999999999945" height="30" as="geometry">
            <mxRectangle width="40.059999999999945" height="30" as="alternateBounds" />
          </mxGeometry>
        </mxCell>
        <mxCell id="l4XwQl3PcMBx6Q5eZ_6Q-168" value="id_recibo INT" style="shape=partialRectangle;connectable=0;fillColor=none;top=0;left=0;bottom=0;right=0;align=left;spacingLeft=6;fontStyle=5;overflow=hidden;html=1;whiteSpace=wrap;" parent="l4XwQl3PcMBx6Q5eZ_6Q-166" vertex="1">
          <mxGeometry x="40.059999999999945" width="179.94000000000005" height="30" as="geometry">
            <mxRectangle width="179.94000000000005" height="30" as="alternateBounds" />
          </mxGeometry>
        </mxCell>
        <mxCell id="l4XwQl3PcMBx6Q5eZ_6Q-169" value="" style="shape=tableRow;horizontal=0;startSize=0;swimlaneHead=0;swimlaneBody=0;fillColor=none;collapsible=0;dropTarget=0;points=[[0,0.5],[1,0.5]];portConstraint=eastwest;top=0;left=0;right=0;bottom=0;html=1;" parent="l4XwQl3PcMBx6Q5eZ_6Q-162" vertex="1">
          <mxGeometry y="60" width="220" height="30" as="geometry" />
        </mxCell>
        <mxCell id="l4XwQl3PcMBx6Q5eZ_6Q-170" value="" style="shape=partialRectangle;connectable=0;fillColor=none;top=0;left=0;bottom=0;right=0;editable=1;overflow=hidden;html=1;whiteSpace=wrap;" parent="l4XwQl3PcMBx6Q5eZ_6Q-169" vertex="1">
          <mxGeometry width="40.059999999999945" height="30" as="geometry">
            <mxRectangle width="40.059999999999945" height="30" as="alternateBounds" />
          </mxGeometry>
        </mxCell>
        <mxCell id="l4XwQl3PcMBx6Q5eZ_6Q-171" value="UrlArchivo VARCHAR(60)" style="shape=partialRectangle;connectable=0;fillColor=none;top=0;left=0;bottom=0;right=0;align=left;spacingLeft=6;overflow=hidden;html=1;whiteSpace=wrap;" parent="l4XwQl3PcMBx6Q5eZ_6Q-169" vertex="1">
          <mxGeometry x="40.059999999999945" width="179.94000000000005" height="30" as="geometry">
            <mxRectangle width="179.94000000000005" height="30" as="alternateBounds" />
          </mxGeometry>
        </mxCell>
        <mxCell id="l4XwQl3PcMBx6Q5eZ_6Q-172" style="edgeStyle=orthogonalEdgeStyle;rounded=0;orthogonalLoop=1;jettySize=auto;html=1;exitX=1;exitY=0.5;exitDx=0;exitDy=0;entryX=0;entryY=0.5;entryDx=0;entryDy=0;" parent="1" source="l4XwQl3PcMBx6Q5eZ_6Q-134" target="l4XwQl3PcMBx6Q5eZ_6Q-127" edge="1">
          <mxGeometry relative="1" as="geometry">
            <Array as="points">
              <mxPoint x="1780" y="775" />
              <mxPoint x="1780" y="775" />
            </Array>
            <mxPoint x="1820" y="740" as="targetPoint" />
          </mxGeometry>
        </mxCell>
        <mxCell id="l4XwQl3PcMBx6Q5eZ_6Q-173" style="edgeStyle=orthogonalEdgeStyle;rounded=0;orthogonalLoop=1;jettySize=auto;html=1;exitX=0;exitY=0.5;exitDx=0;exitDy=0;entryX=1;entryY=0.5;entryDx=0;entryDy=0;" parent="1" source="l4XwQl3PcMBx6Q5eZ_6Q-147" target="l4XwQl3PcMBx6Q5eZ_6Q-121" edge="1">
          <mxGeometry relative="1" as="geometry">
            <Array as="points">
              <mxPoint x="2080" y="535" />
              <mxPoint x="2080" y="685" />
            </Array>
          </mxGeometry>
        </mxCell>
        <mxCell id="l4XwQl3PcMBx6Q5eZ_6Q-187" value="ProductosCompra" style="shape=table;startSize=30;container=1;collapsible=1;childLayout=tableLayout;fixedRows=1;rowLines=0;fontStyle=1;align=center;resizeLast=1;html=1;whiteSpace=wrap;" parent="1" vertex="1">
          <mxGeometry x="2120.06" y="670" width="220.05999999999995" height="180" as="geometry" />
        </mxCell>
        <mxCell id="aSvNotybGgadGFKK0nYT-13" value="" style="shape=tableRow;horizontal=0;startSize=0;swimlaneHead=0;swimlaneBody=0;fillColor=none;collapsible=0;dropTarget=0;points=[[0,0.5],[1,0.5]];portConstraint=eastwest;top=0;left=0;right=0;bottom=0;html=1;" parent="l4XwQl3PcMBx6Q5eZ_6Q-187" vertex="1">
          <mxGeometry y="30" width="220.05999999999995" height="30" as="geometry" />
        </mxCell>
        <mxCell id="aSvNotybGgadGFKK0nYT-14" value="PK" style="shape=partialRectangle;connectable=0;fillColor=none;top=0;left=0;bottom=0;right=0;fontStyle=1;overflow=hidden;html=1;whiteSpace=wrap;" parent="aSvNotybGgadGFKK0nYT-13" vertex="1">
          <mxGeometry width="29.940000000000055" height="30" as="geometry">
            <mxRectangle width="29.940000000000055" height="30" as="alternateBounds" />
          </mxGeometry>
        </mxCell>
        <mxCell id="aSvNotybGgadGFKK0nYT-15" value="id_productocompra INT" style="shape=partialRectangle;connectable=0;fillColor=none;top=0;left=0;bottom=0;right=0;align=left;spacingLeft=6;fontStyle=5;overflow=hidden;html=1;whiteSpace=wrap;" parent="aSvNotybGgadGFKK0nYT-13" vertex="1">
          <mxGeometry x="29.940000000000055" width="190.1199999999999" height="30" as="geometry">
            <mxRectangle width="190.1199999999999" height="30" as="alternateBounds" />
          </mxGeometry>
        </mxCell>
        <mxCell id="l4XwQl3PcMBx6Q5eZ_6Q-188" value="" style="shape=tableRow;horizontal=0;startSize=0;swimlaneHead=0;swimlaneBody=0;fillColor=none;collapsible=0;dropTarget=0;points=[[0,0.5],[1,0.5]];portConstraint=eastwest;top=0;left=0;right=0;bottom=0;html=1;" parent="l4XwQl3PcMBx6Q5eZ_6Q-187" vertex="1">
          <mxGeometry y="60" width="220.05999999999995" height="30" as="geometry" />
        </mxCell>
        <mxCell id="l4XwQl3PcMBx6Q5eZ_6Q-189" value="FK" style="shape=partialRectangle;connectable=0;fillColor=none;top=0;left=0;bottom=0;right=0;fontStyle=1;overflow=hidden;html=1;whiteSpace=wrap;" parent="l4XwQl3PcMBx6Q5eZ_6Q-188" vertex="1">
          <mxGeometry width="29.940000000000055" height="30" as="geometry">
            <mxRectangle width="29.940000000000055" height="30" as="alternateBounds" />
          </mxGeometry>
        </mxCell>
        <mxCell id="l4XwQl3PcMBx6Q5eZ_6Q-190" value="código_producto CHAR(25)" style="shape=partialRectangle;connectable=0;fillColor=none;top=0;left=0;bottom=0;right=0;align=left;spacingLeft=6;fontStyle=5;overflow=hidden;html=1;whiteSpace=wrap;" parent="l4XwQl3PcMBx6Q5eZ_6Q-188" vertex="1">
          <mxGeometry x="29.940000000000055" width="190.1199999999999" height="30" as="geometry">
            <mxRectangle width="190.1199999999999" height="30" as="alternateBounds" />
          </mxGeometry>
        </mxCell>
        <mxCell id="l4XwQl3PcMBx6Q5eZ_6Q-191" value="" style="shape=tableRow;horizontal=0;startSize=0;swimlaneHead=0;swimlaneBody=0;fillColor=none;collapsible=0;dropTarget=0;points=[[0,0.5],[1,0.5]];portConstraint=eastwest;top=0;left=0;right=0;bottom=1;html=1;" parent="l4XwQl3PcMBx6Q5eZ_6Q-187" vertex="1">
          <mxGeometry y="90" width="220.05999999999995" height="30" as="geometry" />
        </mxCell>
        <mxCell id="l4XwQl3PcMBx6Q5eZ_6Q-192" value="FK" style="shape=partialRectangle;connectable=0;fillColor=none;top=0;left=0;bottom=0;right=0;fontStyle=1;overflow=hidden;html=1;whiteSpace=wrap;" parent="l4XwQl3PcMBx6Q5eZ_6Q-191" vertex="1">
          <mxGeometry width="29.940000000000055" height="30" as="geometry">
            <mxRectangle width="29.940000000000055" height="30" as="alternateBounds" />
          </mxGeometry>
        </mxCell>
        <mxCell id="l4XwQl3PcMBx6Q5eZ_6Q-193" value="&lt;div&gt;id_factura INT&lt;/div&gt;" style="shape=partialRectangle;connectable=0;fillColor=none;top=0;left=0;bottom=0;right=0;align=left;spacingLeft=6;fontStyle=5;overflow=hidden;html=1;whiteSpace=wrap;" parent="l4XwQl3PcMBx6Q5eZ_6Q-191" vertex="1">
          <mxGeometry x="29.940000000000055" width="190.1199999999999" height="30" as="geometry">
            <mxRectangle width="190.1199999999999" height="30" as="alternateBounds" />
          </mxGeometry>
        </mxCell>
        <mxCell id="l4XwQl3PcMBx6Q5eZ_6Q-194" value="" style="shape=tableRow;horizontal=0;startSize=0;swimlaneHead=0;swimlaneBody=0;fillColor=none;collapsible=0;dropTarget=0;points=[[0,0.5],[1,0.5]];portConstraint=eastwest;top=0;left=0;right=0;bottom=0;html=1;" parent="l4XwQl3PcMBx6Q5eZ_6Q-187" vertex="1">
          <mxGeometry y="120" width="220.05999999999995" height="30" as="geometry" />
        </mxCell>
        <mxCell id="l4XwQl3PcMBx6Q5eZ_6Q-195" value="" style="shape=partialRectangle;connectable=0;fillColor=none;top=0;left=0;bottom=0;right=0;editable=1;overflow=hidden;html=1;whiteSpace=wrap;" parent="l4XwQl3PcMBx6Q5eZ_6Q-194" vertex="1">
          <mxGeometry width="29.940000000000055" height="30" as="geometry">
            <mxRectangle width="29.940000000000055" height="30" as="alternateBounds" />
          </mxGeometry>
        </mxCell>
        <mxCell id="l4XwQl3PcMBx6Q5eZ_6Q-196" value="precio DECIMAL(10, 3)" style="shape=partialRectangle;connectable=0;fillColor=none;top=0;left=0;bottom=0;right=0;align=left;spacingLeft=6;overflow=hidden;html=1;whiteSpace=wrap;" parent="l4XwQl3PcMBx6Q5eZ_6Q-194" vertex="1">
          <mxGeometry x="29.940000000000055" width="190.1199999999999" height="30" as="geometry">
            <mxRectangle width="190.1199999999999" height="30" as="alternateBounds" />
          </mxGeometry>
        </mxCell>
        <mxCell id="l4XwQl3PcMBx6Q5eZ_6Q-197" value="" style="shape=tableRow;horizontal=0;startSize=0;swimlaneHead=0;swimlaneBody=0;fillColor=none;collapsible=0;dropTarget=0;points=[[0,0.5],[1,0.5]];portConstraint=eastwest;top=0;left=0;right=0;bottom=0;html=1;" parent="l4XwQl3PcMBx6Q5eZ_6Q-187" vertex="1">
          <mxGeometry y="150" width="220.05999999999995" height="30" as="geometry" />
        </mxCell>
        <mxCell id="l4XwQl3PcMBx6Q5eZ_6Q-198" value="" style="shape=partialRectangle;connectable=0;fillColor=none;top=0;left=0;bottom=0;right=0;editable=1;overflow=hidden;html=1;whiteSpace=wrap;" parent="l4XwQl3PcMBx6Q5eZ_6Q-197" vertex="1">
          <mxGeometry width="29.940000000000055" height="30" as="geometry">
            <mxRectangle width="29.940000000000055" height="30" as="alternateBounds" />
          </mxGeometry>
        </mxCell>
        <mxCell id="l4XwQl3PcMBx6Q5eZ_6Q-199" value="cántidad DECIMAL(10, 3)" style="shape=partialRectangle;connectable=0;fillColor=none;top=0;left=0;bottom=0;right=0;align=left;spacingLeft=6;overflow=hidden;html=1;whiteSpace=wrap;" parent="l4XwQl3PcMBx6Q5eZ_6Q-197" vertex="1">
          <mxGeometry x="29.940000000000055" width="190.1199999999999" height="30" as="geometry">
            <mxRectangle width="190.1199999999999" height="30" as="alternateBounds" />
          </mxGeometry>
        </mxCell>
        <mxCell id="l4XwQl3PcMBx6Q5eZ_6Q-203" value="Producto" style="shape=table;startSize=30;container=1;collapsible=1;childLayout=tableLayout;fixedRows=1;rowLines=0;fontStyle=1;align=center;resizeLast=1;html=1;whiteSpace=wrap;" parent="1" vertex="1">
          <mxGeometry x="1510" y="460" width="220" height="240" as="geometry" />
        </mxCell>
        <mxCell id="l4XwQl3PcMBx6Q5eZ_6Q-204" value="" style="shape=tableRow;horizontal=0;startSize=0;swimlaneHead=0;swimlaneBody=0;fillColor=none;collapsible=0;dropTarget=0;points=[[0,0.5],[1,0.5]];portConstraint=eastwest;top=0;left=0;right=0;bottom=0;html=1;" parent="l4XwQl3PcMBx6Q5eZ_6Q-203" vertex="1">
          <mxGeometry y="30" width="220" height="30" as="geometry" />
        </mxCell>
        <mxCell id="l4XwQl3PcMBx6Q5eZ_6Q-205" value="PK" style="shape=partialRectangle;connectable=0;fillColor=none;top=0;left=0;bottom=0;right=0;fontStyle=1;overflow=hidden;html=1;whiteSpace=wrap;" parent="l4XwQl3PcMBx6Q5eZ_6Q-204" vertex="1">
          <mxGeometry width="30" height="30" as="geometry">
            <mxRectangle width="30" height="30" as="alternateBounds" />
          </mxGeometry>
        </mxCell>
        <mxCell id="l4XwQl3PcMBx6Q5eZ_6Q-206" value="codigo CHAR(25)" style="shape=partialRectangle;connectable=0;fillColor=none;top=0;left=0;bottom=0;right=0;align=left;spacingLeft=6;fontStyle=5;overflow=hidden;html=1;whiteSpace=wrap;" parent="l4XwQl3PcMBx6Q5eZ_6Q-204" vertex="1">
          <mxGeometry x="30" width="190" height="30" as="geometry">
            <mxRectangle width="190" height="30" as="alternateBounds" />
          </mxGeometry>
        </mxCell>
        <mxCell id="l4XwQl3PcMBx6Q5eZ_6Q-207" value="" style="shape=tableRow;horizontal=0;startSize=0;swimlaneHead=0;swimlaneBody=0;fillColor=none;collapsible=0;dropTarget=0;points=[[0,0.5],[1,0.5]];portConstraint=eastwest;top=0;left=0;right=0;bottom=1;html=1;" parent="l4XwQl3PcMBx6Q5eZ_6Q-203" vertex="1">
          <mxGeometry y="60" width="220" height="30" as="geometry" />
        </mxCell>
        <mxCell id="l4XwQl3PcMBx6Q5eZ_6Q-208" value="FK" style="shape=partialRectangle;connectable=0;fillColor=none;top=0;left=0;bottom=0;right=0;fontStyle=1;overflow=hidden;html=1;whiteSpace=wrap;" parent="l4XwQl3PcMBx6Q5eZ_6Q-207" vertex="1">
          <mxGeometry width="30" height="30" as="geometry">
            <mxRectangle width="30" height="30" as="alternateBounds" />
          </mxGeometry>
        </mxCell>
        <mxCell id="l4XwQl3PcMBx6Q5eZ_6Q-209" value="id_subcategoría INT" style="shape=partialRectangle;connectable=0;fillColor=none;top=0;left=0;bottom=0;right=0;align=left;spacingLeft=6;fontStyle=5;overflow=hidden;html=1;whiteSpace=wrap;" parent="l4XwQl3PcMBx6Q5eZ_6Q-207" vertex="1">
          <mxGeometry x="30" width="190" height="30" as="geometry">
            <mxRectangle width="190" height="30" as="alternateBounds" />
          </mxGeometry>
        </mxCell>
        <mxCell id="l4XwQl3PcMBx6Q5eZ_6Q-210" value="" style="shape=tableRow;horizontal=0;startSize=0;swimlaneHead=0;swimlaneBody=0;fillColor=none;collapsible=0;dropTarget=0;points=[[0,0.5],[1,0.5]];portConstraint=eastwest;top=0;left=0;right=0;bottom=0;html=1;" parent="l4XwQl3PcMBx6Q5eZ_6Q-203" vertex="1">
          <mxGeometry y="90" width="220" height="30" as="geometry" />
        </mxCell>
        <mxCell id="l4XwQl3PcMBx6Q5eZ_6Q-211" value="" style="shape=partialRectangle;connectable=0;fillColor=none;top=0;left=0;bottom=0;right=0;editable=1;overflow=hidden;html=1;whiteSpace=wrap;" parent="l4XwQl3PcMBx6Q5eZ_6Q-210" vertex="1">
          <mxGeometry width="30" height="30" as="geometry">
            <mxRectangle width="30" height="30" as="alternateBounds" />
          </mxGeometry>
        </mxCell>
        <mxCell id="l4XwQl3PcMBx6Q5eZ_6Q-212" value="producto CHAR(25)" style="shape=partialRectangle;connectable=0;fillColor=none;top=0;left=0;bottom=0;right=0;align=left;spacingLeft=6;overflow=hidden;html=1;whiteSpace=wrap;" parent="l4XwQl3PcMBx6Q5eZ_6Q-210" vertex="1">
          <mxGeometry x="30" width="190" height="30" as="geometry">
            <mxRectangle width="190" height="30" as="alternateBounds" />
          </mxGeometry>
        </mxCell>
        <mxCell id="l4XwQl3PcMBx6Q5eZ_6Q-213" value="" style="shape=tableRow;horizontal=0;startSize=0;swimlaneHead=0;swimlaneBody=0;fillColor=none;collapsible=0;dropTarget=0;points=[[0,0.5],[1,0.5]];portConstraint=eastwest;top=0;left=0;right=0;bottom=0;html=1;" parent="l4XwQl3PcMBx6Q5eZ_6Q-203" vertex="1">
          <mxGeometry y="120" width="220" height="30" as="geometry" />
        </mxCell>
        <mxCell id="l4XwQl3PcMBx6Q5eZ_6Q-214" value="" style="shape=partialRectangle;connectable=0;fillColor=none;top=0;left=0;bottom=0;right=0;editable=1;overflow=hidden;html=1;whiteSpace=wrap;" parent="l4XwQl3PcMBx6Q5eZ_6Q-213" vertex="1">
          <mxGeometry width="30" height="30" as="geometry">
            <mxRectangle width="30" height="30" as="alternateBounds" />
          </mxGeometry>
        </mxCell>
        <mxCell id="l4XwQl3PcMBx6Q5eZ_6Q-215" value="detalle CHAR(25)" style="shape=partialRectangle;connectable=0;fillColor=none;top=0;left=0;bottom=0;right=0;align=left;spacingLeft=6;overflow=hidden;html=1;whiteSpace=wrap;" parent="l4XwQl3PcMBx6Q5eZ_6Q-213" vertex="1">
          <mxGeometry x="30" width="190" height="30" as="geometry">
            <mxRectangle width="190" height="30" as="alternateBounds" />
          </mxGeometry>
        </mxCell>
        <mxCell id="l4XwQl3PcMBx6Q5eZ_6Q-216" value="" style="shape=tableRow;horizontal=0;startSize=0;swimlaneHead=0;swimlaneBody=0;fillColor=none;collapsible=0;dropTarget=0;points=[[0,0.5],[1,0.5]];portConstraint=eastwest;top=0;left=0;right=0;bottom=0;html=1;" parent="l4XwQl3PcMBx6Q5eZ_6Q-203" vertex="1">
          <mxGeometry y="150" width="220" height="30" as="geometry" />
        </mxCell>
        <mxCell id="l4XwQl3PcMBx6Q5eZ_6Q-217" value="" style="shape=partialRectangle;connectable=0;fillColor=none;top=0;left=0;bottom=0;right=0;editable=1;overflow=hidden;html=1;whiteSpace=wrap;" parent="l4XwQl3PcMBx6Q5eZ_6Q-216" vertex="1">
          <mxGeometry width="30" height="30" as="geometry">
            <mxRectangle width="30" height="30" as="alternateBounds" />
          </mxGeometry>
        </mxCell>
        <mxCell id="l4XwQl3PcMBx6Q5eZ_6Q-218" value="precio DECIMAL(10, 3)" style="shape=partialRectangle;connectable=0;fillColor=none;top=0;left=0;bottom=0;right=0;align=left;spacingLeft=6;overflow=hidden;html=1;whiteSpace=wrap;" parent="l4XwQl3PcMBx6Q5eZ_6Q-216" vertex="1">
          <mxGeometry x="30" width="190" height="30" as="geometry">
            <mxRectangle width="190" height="30" as="alternateBounds" />
          </mxGeometry>
        </mxCell>
        <mxCell id="DULyICYCI1vemp3DEOBY-27" value="" style="shape=tableRow;horizontal=0;startSize=0;swimlaneHead=0;swimlaneBody=0;fillColor=none;collapsible=0;dropTarget=0;points=[[0,0.5],[1,0.5]];portConstraint=eastwest;top=0;left=0;right=0;bottom=0;html=1;" parent="l4XwQl3PcMBx6Q5eZ_6Q-203" vertex="1">
          <mxGeometry y="180" width="220" height="30" as="geometry" />
        </mxCell>
        <mxCell id="DULyICYCI1vemp3DEOBY-28" value="" style="shape=partialRectangle;connectable=0;fillColor=none;top=0;left=0;bottom=0;right=0;editable=1;overflow=hidden;html=1;whiteSpace=wrap;" parent="DULyICYCI1vemp3DEOBY-27" vertex="1">
          <mxGeometry width="30" height="30" as="geometry">
            <mxRectangle width="30" height="30" as="alternateBounds" />
          </mxGeometry>
        </mxCell>
        <mxCell id="DULyICYCI1vemp3DEOBY-29" value="stock INT(15)" style="shape=partialRectangle;connectable=0;fillColor=none;top=0;left=0;bottom=0;right=0;align=left;spacingLeft=6;overflow=hidden;html=1;whiteSpace=wrap;" parent="DULyICYCI1vemp3DEOBY-27" vertex="1">
          <mxGeometry x="30" width="190" height="30" as="geometry">
            <mxRectangle width="190" height="30" as="alternateBounds" />
          </mxGeometry>
        </mxCell>
        <mxCell id="D3HiHAyQkfrKMhpJCtIy-1" value="" style="shape=tableRow;horizontal=0;startSize=0;swimlaneHead=0;swimlaneBody=0;fillColor=none;collapsible=0;dropTarget=0;points=[[0,0.5],[1,0.5]];portConstraint=eastwest;top=0;left=0;right=0;bottom=0;html=1;" parent="l4XwQl3PcMBx6Q5eZ_6Q-203" vertex="1">
          <mxGeometry y="210" width="220" height="30" as="geometry" />
        </mxCell>
        <mxCell id="D3HiHAyQkfrKMhpJCtIy-2" value="" style="shape=partialRectangle;connectable=0;fillColor=none;top=0;left=0;bottom=0;right=0;editable=1;overflow=hidden;html=1;whiteSpace=wrap;" parent="D3HiHAyQkfrKMhpJCtIy-1" vertex="1">
          <mxGeometry width="30" height="30" as="geometry">
            <mxRectangle width="30" height="30" as="alternateBounds" />
          </mxGeometry>
        </mxCell>
        <mxCell id="D3HiHAyQkfrKMhpJCtIy-3" value="fechaModificación DATE&amp;nbsp;" style="shape=partialRectangle;connectable=0;fillColor=none;top=0;left=0;bottom=0;right=0;align=left;spacingLeft=6;overflow=hidden;html=1;whiteSpace=wrap;" parent="D3HiHAyQkfrKMhpJCtIy-1" vertex="1">
          <mxGeometry x="30" width="190" height="30" as="geometry">
            <mxRectangle width="190" height="30" as="alternateBounds" />
          </mxGeometry>
        </mxCell>
        <mxCell id="l4XwQl3PcMBx6Q5eZ_6Q-219" style="edgeStyle=orthogonalEdgeStyle;rounded=0;orthogonalLoop=1;jettySize=auto;html=1;exitX=1;exitY=0.5;exitDx=0;exitDy=0;entryX=0;entryY=0.5;entryDx=0;entryDy=0;" parent="1" source="l4XwQl3PcMBx6Q5eZ_6Q-204" target="l4XwQl3PcMBx6Q5eZ_6Q-124" edge="1">
          <mxGeometry relative="1" as="geometry">
            <Array as="points">
              <mxPoint x="1770" y="505" />
              <mxPoint x="1770" y="745" />
            </Array>
            <mxPoint x="1820" y="710" as="targetPoint" />
          </mxGeometry>
        </mxCell>
        <mxCell id="l4XwQl3PcMBx6Q5eZ_6Q-220" value="Categoría" style="shape=table;startSize=30;container=1;collapsible=1;childLayout=tableLayout;fixedRows=1;rowLines=0;fontStyle=1;align=center;resizeLast=1;html=1;whiteSpace=wrap;" parent="1" vertex="1">
          <mxGeometry x="1510" y="190" width="220" height="90" as="geometry" />
        </mxCell>
        <mxCell id="l4XwQl3PcMBx6Q5eZ_6Q-221" value="" style="shape=tableRow;horizontal=0;startSize=0;swimlaneHead=0;swimlaneBody=0;fillColor=none;collapsible=0;dropTarget=0;points=[[0,0.5],[1,0.5]];portConstraint=eastwest;top=0;left=0;right=0;bottom=1;html=1;" parent="l4XwQl3PcMBx6Q5eZ_6Q-220" vertex="1">
          <mxGeometry y="30" width="220" height="30" as="geometry" />
        </mxCell>
        <mxCell id="l4XwQl3PcMBx6Q5eZ_6Q-222" value="PK" style="shape=partialRectangle;connectable=0;fillColor=none;top=0;left=0;bottom=0;right=0;fontStyle=1;overflow=hidden;html=1;whiteSpace=wrap;" parent="l4XwQl3PcMBx6Q5eZ_6Q-221" vertex="1">
          <mxGeometry width="50" height="30" as="geometry">
            <mxRectangle width="50" height="30" as="alternateBounds" />
          </mxGeometry>
        </mxCell>
        <mxCell id="l4XwQl3PcMBx6Q5eZ_6Q-223" value="ID_Categoría INT" style="shape=partialRectangle;connectable=0;fillColor=none;top=0;left=0;bottom=0;right=0;align=left;spacingLeft=6;fontStyle=5;overflow=hidden;html=1;whiteSpace=wrap;" parent="l4XwQl3PcMBx6Q5eZ_6Q-221" vertex="1">
          <mxGeometry x="50" width="170" height="30" as="geometry">
            <mxRectangle width="170" height="30" as="alternateBounds" />
          </mxGeometry>
        </mxCell>
        <mxCell id="l4XwQl3PcMBx6Q5eZ_6Q-224" value="" style="shape=tableRow;horizontal=0;startSize=0;swimlaneHead=0;swimlaneBody=0;fillColor=none;collapsible=0;dropTarget=0;points=[[0,0.5],[1,0.5]];portConstraint=eastwest;top=0;left=0;right=0;bottom=0;html=1;" parent="l4XwQl3PcMBx6Q5eZ_6Q-220" vertex="1">
          <mxGeometry y="60" width="220" height="30" as="geometry" />
        </mxCell>
        <mxCell id="l4XwQl3PcMBx6Q5eZ_6Q-225" value="" style="shape=partialRectangle;connectable=0;fillColor=none;top=0;left=0;bottom=0;right=0;editable=1;overflow=hidden;html=1;whiteSpace=wrap;" parent="l4XwQl3PcMBx6Q5eZ_6Q-224" vertex="1">
          <mxGeometry width="50" height="30" as="geometry">
            <mxRectangle width="50" height="30" as="alternateBounds" />
          </mxGeometry>
        </mxCell>
        <mxCell id="l4XwQl3PcMBx6Q5eZ_6Q-226" value="Nombre CHAR(15)" style="shape=partialRectangle;connectable=0;fillColor=none;top=0;left=0;bottom=0;right=0;align=left;spacingLeft=6;overflow=hidden;html=1;whiteSpace=wrap;" parent="l4XwQl3PcMBx6Q5eZ_6Q-224" vertex="1">
          <mxGeometry x="50" width="170" height="30" as="geometry">
            <mxRectangle width="170" height="30" as="alternateBounds" />
          </mxGeometry>
        </mxCell>
        <mxCell id="l4XwQl3PcMBx6Q5eZ_6Q-228" value="MetodoPago" style="shape=table;startSize=30;container=1;collapsible=1;childLayout=tableLayout;fixedRows=1;rowLines=0;fontStyle=1;align=center;resizeLast=1;html=1;whiteSpace=wrap;" parent="1" vertex="1">
          <mxGeometry x="1820" y="370" width="220" height="120" as="geometry" />
        </mxCell>
        <mxCell id="l4XwQl3PcMBx6Q5eZ_6Q-229" value="" style="shape=tableRow;horizontal=0;startSize=0;swimlaneHead=0;swimlaneBody=0;fillColor=none;collapsible=0;dropTarget=0;points=[[0,0.5],[1,0.5]];portConstraint=eastwest;top=0;left=0;right=0;bottom=1;html=1;" parent="l4XwQl3PcMBx6Q5eZ_6Q-228" vertex="1">
          <mxGeometry y="30" width="220" height="30" as="geometry" />
        </mxCell>
        <mxCell id="l4XwQl3PcMBx6Q5eZ_6Q-230" value="PK" style="shape=partialRectangle;connectable=0;fillColor=none;top=0;left=0;bottom=0;right=0;fontStyle=1;overflow=hidden;html=1;whiteSpace=wrap;" parent="l4XwQl3PcMBx6Q5eZ_6Q-229" vertex="1">
          <mxGeometry width="29.999999999999545" height="30" as="geometry">
            <mxRectangle width="29.999999999999545" height="30" as="alternateBounds" />
          </mxGeometry>
        </mxCell>
        <mxCell id="l4XwQl3PcMBx6Q5eZ_6Q-231" value="id_metodopago INT" style="shape=partialRectangle;connectable=0;fillColor=none;top=0;left=0;bottom=0;right=0;align=left;spacingLeft=6;fontStyle=5;overflow=hidden;html=1;whiteSpace=wrap;" parent="l4XwQl3PcMBx6Q5eZ_6Q-229" vertex="1">
          <mxGeometry x="29.999999999999545" width="190.00000000000045" height="30" as="geometry">
            <mxRectangle width="190.00000000000045" height="30" as="alternateBounds" />
          </mxGeometry>
        </mxCell>
        <mxCell id="l4XwQl3PcMBx6Q5eZ_6Q-232" value="" style="shape=tableRow;horizontal=0;startSize=0;swimlaneHead=0;swimlaneBody=0;fillColor=none;collapsible=0;dropTarget=0;points=[[0,0.5],[1,0.5]];portConstraint=eastwest;top=0;left=0;right=0;bottom=0;html=1;" parent="l4XwQl3PcMBx6Q5eZ_6Q-228" vertex="1">
          <mxGeometry y="60" width="220" height="30" as="geometry" />
        </mxCell>
        <mxCell id="l4XwQl3PcMBx6Q5eZ_6Q-233" value="" style="shape=partialRectangle;connectable=0;fillColor=none;top=0;left=0;bottom=0;right=0;editable=1;overflow=hidden;html=1;whiteSpace=wrap;" parent="l4XwQl3PcMBx6Q5eZ_6Q-232" vertex="1">
          <mxGeometry width="29.999999999999545" height="30" as="geometry">
            <mxRectangle width="29.999999999999545" height="30" as="alternateBounds" />
          </mxGeometry>
        </mxCell>
        <mxCell id="l4XwQl3PcMBx6Q5eZ_6Q-234" value="nombre CHAR(15)" style="shape=partialRectangle;connectable=0;fillColor=none;top=0;left=0;bottom=0;right=0;align=left;spacingLeft=6;overflow=hidden;html=1;whiteSpace=wrap;" parent="l4XwQl3PcMBx6Q5eZ_6Q-232" vertex="1">
          <mxGeometry x="29.999999999999545" width="190.00000000000045" height="30" as="geometry">
            <mxRectangle width="190.00000000000045" height="30" as="alternateBounds" />
          </mxGeometry>
        </mxCell>
        <mxCell id="l4XwQl3PcMBx6Q5eZ_6Q-235" value="" style="shape=tableRow;horizontal=0;startSize=0;swimlaneHead=0;swimlaneBody=0;fillColor=none;collapsible=0;dropTarget=0;points=[[0,0.5],[1,0.5]];portConstraint=eastwest;top=0;left=0;right=0;bottom=0;html=1;" parent="l4XwQl3PcMBx6Q5eZ_6Q-228" vertex="1">
          <mxGeometry y="90" width="220" height="30" as="geometry" />
        </mxCell>
        <mxCell id="l4XwQl3PcMBx6Q5eZ_6Q-236" value="" style="shape=partialRectangle;connectable=0;fillColor=none;top=0;left=0;bottom=0;right=0;editable=1;overflow=hidden;html=1;whiteSpace=wrap;" parent="l4XwQl3PcMBx6Q5eZ_6Q-235" vertex="1">
          <mxGeometry width="29.999999999999545" height="30" as="geometry">
            <mxRectangle width="29.999999999999545" height="30" as="alternateBounds" />
          </mxGeometry>
        </mxCell>
        <mxCell id="l4XwQl3PcMBx6Q5eZ_6Q-237" value="descuento DECIMAL(3, 3)" style="shape=partialRectangle;connectable=0;fillColor=none;top=0;left=0;bottom=0;right=0;align=left;spacingLeft=6;overflow=hidden;html=1;whiteSpace=wrap;" parent="l4XwQl3PcMBx6Q5eZ_6Q-235" vertex="1">
          <mxGeometry x="29.999999999999545" width="190.00000000000045" height="30" as="geometry">
            <mxRectangle width="190.00000000000045" height="30" as="alternateBounds" />
          </mxGeometry>
        </mxCell>
        <mxCell id="DULyICYCI1vemp3DEOBY-1" value="Stock" style="ellipse;whiteSpace=wrap;html=1;align=center;" parent="1" vertex="1">
          <mxGeometry x="773" y="350" width="100" height="40" as="geometry" />
        </mxCell>
        <mxCell id="DULyICYCI1vemp3DEOBY-10" style="edgeStyle=orthogonalEdgeStyle;shape=connector;rounded=0;orthogonalLoop=1;jettySize=auto;html=1;entryX=1;entryY=0.5;entryDx=0;entryDy=0;labelBackgroundColor=default;strokeColor=default;fontFamily=Helvetica;fontSize=11;fontColor=default;endArrow=none;endFill=0;" parent="1" source="DULyICYCI1vemp3DEOBY-3" target="DULyICYCI1vemp3DEOBY-9" edge="1">
          <mxGeometry relative="1" as="geometry">
            <Array as="points">
              <mxPoint x="240" y="80" />
            </Array>
          </mxGeometry>
        </mxCell>
        <mxCell id="DULyICYCI1vemp3DEOBY-13" style="edgeStyle=orthogonalEdgeStyle;shape=connector;rounded=0;orthogonalLoop=1;jettySize=auto;html=1;exitX=0.582;exitY=0.007;exitDx=0;exitDy=0;entryX=0;entryY=0.5;entryDx=0;entryDy=0;labelBackgroundColor=default;strokeColor=default;fontFamily=Helvetica;fontSize=11;fontColor=default;endArrow=none;endFill=0;exitPerimeter=0;" parent="1" source="DULyICYCI1vemp3DEOBY-3" target="DULyICYCI1vemp3DEOBY-11" edge="1">
          <mxGeometry relative="1" as="geometry">
            <Array as="points">
              <mxPoint x="260" y="80" />
            </Array>
          </mxGeometry>
        </mxCell>
        <mxCell id="aSvNotybGgadGFKK0nYT-2" style="edgeStyle=orthogonalEdgeStyle;rounded=0;orthogonalLoop=1;jettySize=auto;html=1;exitX=0.5;exitY=0;exitDx=0;exitDy=0;entryX=0.5;entryY=1;entryDx=0;entryDy=0;endArrow=none;endFill=0;" parent="1" source="DULyICYCI1vemp3DEOBY-3" target="aSvNotybGgadGFKK0nYT-1" edge="1">
          <mxGeometry relative="1" as="geometry" />
        </mxCell>
        <mxCell id="DULyICYCI1vemp3DEOBY-3" value="Sub-categoría" style="rounded=1;arcSize=10;whiteSpace=wrap;html=1;align=center;" parent="1" vertex="1">
          <mxGeometry x="201.5" y="140" width="100" height="40" as="geometry" />
        </mxCell>
        <mxCell id="DULyICYCI1vemp3DEOBY-7" style="edgeStyle=orthogonalEdgeStyle;shape=connector;rounded=0;orthogonalLoop=1;jettySize=auto;html=1;exitX=0.5;exitY=0;exitDx=0;exitDy=0;entryX=0.5;entryY=1;entryDx=0;entryDy=0;labelBackgroundColor=default;strokeColor=default;fontFamily=Helvetica;fontSize=11;fontColor=default;endArrow=none;endFill=0;" parent="1" source="DULyICYCI1vemp3DEOBY-4" target="DULyICYCI1vemp3DEOBY-3" edge="1">
          <mxGeometry relative="1" as="geometry" />
        </mxCell>
        <mxCell id="DULyICYCI1vemp3DEOBY-4" value="Poseen" style="shape=rhombus;perimeter=rhombusPerimeter;whiteSpace=wrap;html=1;align=center;" parent="1" vertex="1">
          <mxGeometry x="191.5" y="235" width="120" height="60" as="geometry" />
        </mxCell>
        <mxCell id="DULyICYCI1vemp3DEOBY-9" value="ID_subCategoria" style="ellipse;whiteSpace=wrap;html=1;align=center;fontStyle=4;fontFamily=Helvetica;fontSize=11;fontColor=default;" parent="1" vertex="1">
          <mxGeometry x="118.5" y="60" width="100" height="40" as="geometry" />
        </mxCell>
        <mxCell id="DULyICYCI1vemp3DEOBY-11" value="Nombre" style="ellipse;whiteSpace=wrap;html=1;align=center;fontFamily=Helvetica;fontSize=11;fontColor=default;" parent="1" vertex="1">
          <mxGeometry x="281.5" y="60" width="100" height="40" as="geometry" />
        </mxCell>
        <mxCell id="DULyICYCI1vemp3DEOBY-16" value="m:1" style="text;html=1;align=center;verticalAlign=middle;resizable=0;points=[];autosize=1;strokeColor=none;fillColor=none;fontSize=11;fontFamily=Helvetica;fontColor=default;" parent="1" vertex="1">
          <mxGeometry x="310" y="250" width="40" height="30" as="geometry" />
        </mxCell>
        <mxCell id="DULyICYCI1vemp3DEOBY-18" value="1:m" style="text;html=1;align=center;verticalAlign=middle;resizable=0;points=[];autosize=1;strokeColor=none;fillColor=none;fontSize=11;fontFamily=Helvetica;fontColor=default;" parent="1" vertex="1">
          <mxGeometry x="450" y="310" width="40" height="30" as="geometry" />
        </mxCell>
        <mxCell id="DULyICYCI1vemp3DEOBY-23" value="1:1" style="text;html=1;align=center;verticalAlign=middle;resizable=0;points=[];autosize=1;strokeColor=none;fillColor=none;fontSize=11;fontFamily=Helvetica;fontColor=default;" parent="1" vertex="1">
          <mxGeometry x="1160" y="715" width="40" height="30" as="geometry" />
        </mxCell>
        <mxCell id="MU-CBqEzvpY1SloHTtcO-2" value="ID_subCategoria" style="ellipse;whiteSpace=wrap;html=1;align=center;fontStyle=4;fontFamily=Helvetica;fontSize=11;fontColor=default;" parent="1" vertex="1">
          <mxGeometry x="201.5" y="460" width="100" height="40" as="geometry" />
        </mxCell>
        <mxCell id="MU-CBqEzvpY1SloHTtcO-18" style="edgeStyle=orthogonalEdgeStyle;rounded=0;orthogonalLoop=1;jettySize=auto;html=1;" parent="1" target="l4XwQl3PcMBx6Q5eZ_6Q-150" edge="1">
          <mxGeometry relative="1" as="geometry">
            <Array as="points">
              <mxPoint x="2360" y="395" />
              <mxPoint x="2360" y="565" />
            </Array>
            <mxPoint x="2340.0600000000004" y="395" as="sourcePoint" />
          </mxGeometry>
        </mxCell>
        <mxCell id="aSvNotybGgadGFKK0nYT-1" value="&lt;span style=&quot;border-bottom: 1px dotted&quot;&gt;ID_Categoría&lt;/span&gt;" style="ellipse;whiteSpace=wrap;html=1;align=center;" parent="1" vertex="1">
          <mxGeometry x="201.5" y="10" width="100" height="40" as="geometry" />
        </mxCell>
        <mxCell id="aSvNotybGgadGFKK0nYT-3" value="SubCategoría" style="shape=table;startSize=30;container=1;collapsible=1;childLayout=tableLayout;fixedRows=1;rowLines=0;fontStyle=1;align=center;resizeLast=1;html=1;whiteSpace=wrap;" parent="1" vertex="1">
          <mxGeometry x="1510" y="310" width="220" height="120" as="geometry" />
        </mxCell>
        <mxCell id="aSvNotybGgadGFKK0nYT-10" value="" style="shape=tableRow;horizontal=0;startSize=0;swimlaneHead=0;swimlaneBody=0;fillColor=none;collapsible=0;dropTarget=0;points=[[0,0.5],[1,0.5]];portConstraint=eastwest;top=0;left=0;right=0;bottom=0;html=1;" parent="aSvNotybGgadGFKK0nYT-3" vertex="1">
          <mxGeometry y="30" width="220" height="30" as="geometry" />
        </mxCell>
        <mxCell id="aSvNotybGgadGFKK0nYT-11" value="PK" style="shape=partialRectangle;connectable=0;fillColor=none;top=0;left=0;bottom=0;right=0;fontStyle=1;overflow=hidden;html=1;whiteSpace=wrap;" parent="aSvNotybGgadGFKK0nYT-10" vertex="1">
          <mxGeometry width="50" height="30" as="geometry">
            <mxRectangle width="50" height="30" as="alternateBounds" />
          </mxGeometry>
        </mxCell>
        <mxCell id="aSvNotybGgadGFKK0nYT-12" value="id_subcategoria INT" style="shape=partialRectangle;connectable=0;fillColor=none;top=0;left=0;bottom=0;right=0;align=left;spacingLeft=6;fontStyle=5;overflow=hidden;html=1;whiteSpace=wrap;" parent="aSvNotybGgadGFKK0nYT-10" vertex="1">
          <mxGeometry x="50" width="170" height="30" as="geometry">
            <mxRectangle width="170" height="30" as="alternateBounds" />
          </mxGeometry>
        </mxCell>
        <mxCell id="aSvNotybGgadGFKK0nYT-4" value="" style="shape=tableRow;horizontal=0;startSize=0;swimlaneHead=0;swimlaneBody=0;fillColor=none;collapsible=0;dropTarget=0;points=[[0,0.5],[1,0.5]];portConstraint=eastwest;top=0;left=0;right=0;bottom=1;html=1;" parent="aSvNotybGgadGFKK0nYT-3" vertex="1">
          <mxGeometry y="60" width="220" height="30" as="geometry" />
        </mxCell>
        <mxCell id="aSvNotybGgadGFKK0nYT-5" value="FK" style="shape=partialRectangle;connectable=0;fillColor=none;top=0;left=0;bottom=0;right=0;fontStyle=1;overflow=hidden;html=1;whiteSpace=wrap;" parent="aSvNotybGgadGFKK0nYT-4" vertex="1">
          <mxGeometry width="50" height="30" as="geometry">
            <mxRectangle width="50" height="30" as="alternateBounds" />
          </mxGeometry>
        </mxCell>
        <mxCell id="aSvNotybGgadGFKK0nYT-6" value="id_categoría INT" style="shape=partialRectangle;connectable=0;fillColor=none;top=0;left=0;bottom=0;right=0;align=left;spacingLeft=6;fontStyle=5;overflow=hidden;html=1;whiteSpace=wrap;" parent="aSvNotybGgadGFKK0nYT-4" vertex="1">
          <mxGeometry x="50" width="170" height="30" as="geometry">
            <mxRectangle width="170" height="30" as="alternateBounds" />
          </mxGeometry>
        </mxCell>
        <mxCell id="aSvNotybGgadGFKK0nYT-7" value="" style="shape=tableRow;horizontal=0;startSize=0;swimlaneHead=0;swimlaneBody=0;fillColor=none;collapsible=0;dropTarget=0;points=[[0,0.5],[1,0.5]];portConstraint=eastwest;top=0;left=0;right=0;bottom=0;html=1;" parent="aSvNotybGgadGFKK0nYT-3" vertex="1">
          <mxGeometry y="90" width="220" height="30" as="geometry" />
        </mxCell>
        <mxCell id="aSvNotybGgadGFKK0nYT-8" value="" style="shape=partialRectangle;connectable=0;fillColor=none;top=0;left=0;bottom=0;right=0;editable=1;overflow=hidden;html=1;whiteSpace=wrap;" parent="aSvNotybGgadGFKK0nYT-7" vertex="1">
          <mxGeometry width="50" height="30" as="geometry">
            <mxRectangle width="50" height="30" as="alternateBounds" />
          </mxGeometry>
        </mxCell>
        <mxCell id="aSvNotybGgadGFKK0nYT-9" value="nombre CHAR(15)" style="shape=partialRectangle;connectable=0;fillColor=none;top=0;left=0;bottom=0;right=0;align=left;spacingLeft=6;overflow=hidden;html=1;whiteSpace=wrap;" parent="aSvNotybGgadGFKK0nYT-7" vertex="1">
          <mxGeometry x="50" width="170" height="30" as="geometry">
            <mxRectangle width="170" height="30" as="alternateBounds" />
          </mxGeometry>
        </mxCell>
        <mxCell id="aSvNotybGgadGFKK0nYT-20" style="edgeStyle=orthogonalEdgeStyle;rounded=0;orthogonalLoop=1;jettySize=auto;html=1;exitX=1;exitY=0.5;exitDx=0;exitDy=0;entryX=1;entryY=0.5;entryDx=0;entryDy=0;endArrow=none;endFill=0;startArrow=classic;startFill=1;" parent="1" source="l4XwQl3PcMBx6Q5eZ_6Q-191" target="l4XwQl3PcMBx6Q5eZ_6Q-147" edge="1">
          <mxGeometry relative="1" as="geometry">
            <Array as="points">
              <mxPoint x="2370" y="775" />
              <mxPoint x="2370" y="535" />
            </Array>
          </mxGeometry>
        </mxCell>
        <mxCell id="aSvNotybGgadGFKK0nYT-25" style="edgeStyle=orthogonalEdgeStyle;rounded=0;orthogonalLoop=1;jettySize=auto;html=1;exitX=0;exitY=0.5;exitDx=0;exitDy=0;entryX=1;entryY=0.5;entryDx=0;entryDy=0;" parent="1" source="aSvNotybGgadGFKK0nYT-13" target="aSvNotybGgadGFKK0nYT-16" edge="1">
          <mxGeometry relative="1" as="geometry">
            <Array as="points">
              <mxPoint x="2110" y="715" />
              <mxPoint x="2110" y="715" />
            </Array>
          </mxGeometry>
        </mxCell>
        <mxCell id="aSvNotybGgadGFKK0nYT-28" value="0 = Admin&lt;br&gt;1 = Usuario" style="text;html=1;strokeColor=none;fillColor=none;align=center;verticalAlign=middle;whiteSpace=wrap;rounded=0;" parent="1" vertex="1">
          <mxGeometry x="1720" y="820" width="100" height="30" as="geometry" />
        </mxCell>
        <mxCell id="aSvNotybGgadGFKK0nYT-30" style="edgeStyle=orthogonalEdgeStyle;rounded=0;orthogonalLoop=1;jettySize=auto;html=1;exitX=0;exitY=0.5;exitDx=0;exitDy=0;entryX=0;entryY=0.5;entryDx=0;entryDy=0;" parent="1" source="aSvNotybGgadGFKK0nYT-10" target="l4XwQl3PcMBx6Q5eZ_6Q-207" edge="1">
          <mxGeometry relative="1" as="geometry" />
        </mxCell>
        <mxCell id="aSvNotybGgadGFKK0nYT-31" style="edgeStyle=orthogonalEdgeStyle;rounded=0;orthogonalLoop=1;jettySize=auto;html=1;exitX=1;exitY=0.5;exitDx=0;exitDy=0;entryX=1;entryY=0.5;entryDx=0;entryDy=0;" parent="1" source="l4XwQl3PcMBx6Q5eZ_6Q-221" target="aSvNotybGgadGFKK0nYT-4" edge="1">
          <mxGeometry relative="1" as="geometry" />
        </mxCell>
        <mxCell id="sQCNqv_O4jE2dUK2nWUf-1" style="edgeStyle=orthogonalEdgeStyle;rounded=0;orthogonalLoop=1;jettySize=auto;html=1;exitX=0;exitY=0.5;exitDx=0;exitDy=0;entryX=0;entryY=0.5;entryDx=0;entryDy=0;" parent="1" source="l4XwQl3PcMBx6Q5eZ_6Q-229" target="l4XwQl3PcMBx6Q5eZ_6Q-130" edge="1">
          <mxGeometry relative="1" as="geometry">
            <mxPoint x="1800" y="580" as="targetPoint" />
          </mxGeometry>
        </mxCell>
        <mxCell id="sQCNqv_O4jE2dUK2nWUf-2" style="edgeStyle=orthogonalEdgeStyle;rounded=0;orthogonalLoop=1;jettySize=auto;html=1;exitX=1;exitY=0.5;exitDx=0;exitDy=0;entryX=0;entryY=0.5;entryDx=0;entryDy=0;" parent="1" source="l4XwQl3PcMBx6Q5eZ_6Q-124" target="l4XwQl3PcMBx6Q5eZ_6Q-188" edge="1">
          <mxGeometry relative="1" as="geometry" />
        </mxCell>
        <mxCell id="EQsfz8BqnlJLkTx9funj-123" value="aplicación" style="shape=table;startSize=30;container=1;collapsible=1;childLayout=tableLayout;fixedRows=1;rowLines=0;fontStyle=1;align=center;resizeLast=1;html=1;whiteSpace=wrap;" vertex="1" parent="1">
          <mxGeometry x="1819.91" y="1640" width="220.09000000000015" height="180" as="geometry" />
        </mxCell>
        <mxCell id="EQsfz8BqnlJLkTx9funj-124" value="" style="shape=tableRow;horizontal=0;startSize=0;swimlaneHead=0;swimlaneBody=0;fillColor=none;collapsible=0;dropTarget=0;points=[[0,0.5],[1,0.5]];portConstraint=eastwest;top=0;left=0;right=0;bottom=0;html=1;" vertex="1" parent="EQsfz8BqnlJLkTx9funj-123">
          <mxGeometry y="30" width="220.09000000000015" height="30" as="geometry" />
        </mxCell>
        <mxCell id="EQsfz8BqnlJLkTx9funj-125" value="FK" style="shape=partialRectangle;connectable=0;fillColor=none;top=0;left=0;bottom=0;right=0;fontStyle=1;overflow=hidden;html=1;whiteSpace=wrap;" vertex="1" parent="EQsfz8BqnlJLkTx9funj-124">
          <mxGeometry width="30" height="30" as="geometry">
            <mxRectangle width="30" height="30" as="alternateBounds" />
          </mxGeometry>
        </mxCell>
        <mxCell id="EQsfz8BqnlJLkTx9funj-126" value="id_metodoPago" style="shape=partialRectangle;connectable=0;fillColor=none;top=0;left=0;bottom=0;right=0;align=left;spacingLeft=6;fontStyle=5;overflow=hidden;html=1;whiteSpace=wrap;" vertex="1" parent="EQsfz8BqnlJLkTx9funj-124">
          <mxGeometry x="30" width="190.09000000000015" height="30" as="geometry">
            <mxRectangle width="190.09000000000015" height="30" as="alternateBounds" />
          </mxGeometry>
        </mxCell>
        <mxCell id="EQsfz8BqnlJLkTx9funj-127" value="" style="shape=tableRow;horizontal=0;startSize=0;swimlaneHead=0;swimlaneBody=0;fillColor=none;collapsible=0;dropTarget=0;points=[[0,0.5],[1,0.5]];portConstraint=eastwest;top=0;left=0;right=0;bottom=0;html=1;" vertex="1" parent="EQsfz8BqnlJLkTx9funj-123">
          <mxGeometry y="60" width="220.09000000000015" height="30" as="geometry" />
        </mxCell>
        <mxCell id="EQsfz8BqnlJLkTx9funj-128" value="FK" style="shape=partialRectangle;connectable=0;fillColor=none;top=0;left=0;bottom=0;right=0;fontStyle=1;overflow=hidden;html=1;whiteSpace=wrap;" vertex="1" parent="EQsfz8BqnlJLkTx9funj-127">
          <mxGeometry width="30" height="30" as="geometry">
            <mxRectangle width="30" height="30" as="alternateBounds" />
          </mxGeometry>
        </mxCell>
        <mxCell id="EQsfz8BqnlJLkTx9funj-129" value="id_factura INT" style="shape=partialRectangle;connectable=0;fillColor=none;top=0;left=0;bottom=0;right=0;align=left;spacingLeft=6;fontStyle=5;overflow=hidden;html=1;whiteSpace=wrap;" vertex="1" parent="EQsfz8BqnlJLkTx9funj-127">
          <mxGeometry x="30" width="190.09000000000015" height="30" as="geometry">
            <mxRectangle width="190.09000000000015" height="30" as="alternateBounds" />
          </mxGeometry>
        </mxCell>
        <mxCell id="EQsfz8BqnlJLkTx9funj-130" value="" style="shape=tableRow;horizontal=0;startSize=0;swimlaneHead=0;swimlaneBody=0;fillColor=none;collapsible=0;dropTarget=0;points=[[0,0.5],[1,0.5]];portConstraint=eastwest;top=0;left=0;right=0;bottom=0;html=1;" vertex="1" parent="EQsfz8BqnlJLkTx9funj-123">
          <mxGeometry y="90" width="220.09000000000015" height="30" as="geometry" />
        </mxCell>
        <mxCell id="EQsfz8BqnlJLkTx9funj-131" value="FK" style="shape=partialRectangle;connectable=0;fillColor=none;top=0;left=0;bottom=0;right=0;fontStyle=1;overflow=hidden;html=1;whiteSpace=wrap;" vertex="1" parent="EQsfz8BqnlJLkTx9funj-130">
          <mxGeometry width="30" height="30" as="geometry">
            <mxRectangle width="30" height="30" as="alternateBounds" />
          </mxGeometry>
        </mxCell>
        <mxCell id="EQsfz8BqnlJLkTx9funj-132" value="id_productoCompra INT" style="shape=partialRectangle;connectable=0;fillColor=none;top=0;left=0;bottom=0;right=0;align=left;spacingLeft=6;fontStyle=5;overflow=hidden;html=1;whiteSpace=wrap;" vertex="1" parent="EQsfz8BqnlJLkTx9funj-130">
          <mxGeometry x="30" width="190.09000000000015" height="30" as="geometry">
            <mxRectangle width="190.09000000000015" height="30" as="alternateBounds" />
          </mxGeometry>
        </mxCell>
        <mxCell id="EQsfz8BqnlJLkTx9funj-133" value="" style="shape=tableRow;horizontal=0;startSize=0;swimlaneHead=0;swimlaneBody=0;fillColor=none;collapsible=0;dropTarget=0;points=[[0,0.5],[1,0.5]];portConstraint=eastwest;top=0;left=0;right=0;bottom=0;html=1;" vertex="1" parent="EQsfz8BqnlJLkTx9funj-123">
          <mxGeometry y="120" width="220.09000000000015" height="30" as="geometry" />
        </mxCell>
        <mxCell id="EQsfz8BqnlJLkTx9funj-134" value="FK" style="shape=partialRectangle;connectable=0;fillColor=none;top=0;left=0;bottom=0;right=0;fontStyle=1;overflow=hidden;html=1;whiteSpace=wrap;" vertex="1" parent="EQsfz8BqnlJLkTx9funj-133">
          <mxGeometry width="30" height="30" as="geometry">
            <mxRectangle width="30" height="30" as="alternateBounds" />
          </mxGeometry>
        </mxCell>
        <mxCell id="EQsfz8BqnlJLkTx9funj-135" value="código CHAR(25)" style="shape=partialRectangle;connectable=0;fillColor=none;top=0;left=0;bottom=0;right=0;align=left;spacingLeft=6;fontStyle=5;overflow=hidden;html=1;whiteSpace=wrap;" vertex="1" parent="EQsfz8BqnlJLkTx9funj-133">
          <mxGeometry x="30" width="190.09000000000015" height="30" as="geometry">
            <mxRectangle width="190.09000000000015" height="30" as="alternateBounds" />
          </mxGeometry>
        </mxCell>
        <mxCell id="EQsfz8BqnlJLkTx9funj-136" value="" style="shape=tableRow;horizontal=0;startSize=0;swimlaneHead=0;swimlaneBody=0;fillColor=none;collapsible=0;dropTarget=0;points=[[0,0.5],[1,0.5]];portConstraint=eastwest;top=0;left=0;right=0;bottom=0;html=1;" vertex="1" parent="EQsfz8BqnlJLkTx9funj-123">
          <mxGeometry y="150" width="220.09000000000015" height="30" as="geometry" />
        </mxCell>
        <mxCell id="EQsfz8BqnlJLkTx9funj-137" value="FK" style="shape=partialRectangle;connectable=0;fillColor=none;top=0;left=0;bottom=0;right=0;fontStyle=1;overflow=hidden;html=1;whiteSpace=wrap;" vertex="1" parent="EQsfz8BqnlJLkTx9funj-136">
          <mxGeometry width="30" height="30" as="geometry">
            <mxRectangle width="30" height="30" as="alternateBounds" />
          </mxGeometry>
        </mxCell>
        <mxCell id="EQsfz8BqnlJLkTx9funj-138" value="usuario CHAR(15)" style="shape=partialRectangle;connectable=0;fillColor=none;top=0;left=0;bottom=0;right=0;align=left;spacingLeft=6;fontStyle=5;overflow=hidden;html=1;whiteSpace=wrap;" vertex="1" parent="EQsfz8BqnlJLkTx9funj-136">
          <mxGeometry x="30" width="190.09000000000015" height="30" as="geometry">
            <mxRectangle width="190.09000000000015" height="30" as="alternateBounds" />
          </mxGeometry>
        </mxCell>
        <mxCell id="EQsfz8BqnlJLkTx9funj-139" value="usuario" style="shape=table;startSize=30;container=1;collapsible=1;childLayout=tableLayout;fixedRows=1;rowLines=0;fontStyle=1;align=center;resizeLast=1;html=1;whiteSpace=wrap;" vertex="1" parent="1">
          <mxGeometry x="1509.91" y="1760" width="220" height="120" as="geometry" />
        </mxCell>
        <mxCell id="EQsfz8BqnlJLkTx9funj-140" value="" style="shape=tableRow;horizontal=0;startSize=0;swimlaneHead=0;swimlaneBody=0;fillColor=none;collapsible=0;dropTarget=0;points=[[0,0.5],[1,0.5]];portConstraint=eastwest;top=0;left=0;right=0;bottom=1;html=1;" vertex="1" parent="EQsfz8BqnlJLkTx9funj-139">
          <mxGeometry y="30" width="220" height="30" as="geometry" />
        </mxCell>
        <mxCell id="EQsfz8BqnlJLkTx9funj-141" value="PK" style="shape=partialRectangle;connectable=0;fillColor=none;top=0;left=0;bottom=0;right=0;fontStyle=1;overflow=hidden;html=1;whiteSpace=wrap;" vertex="1" parent="EQsfz8BqnlJLkTx9funj-140">
          <mxGeometry width="30" height="30" as="geometry">
            <mxRectangle width="30" height="30" as="alternateBounds" />
          </mxGeometry>
        </mxCell>
        <mxCell id="EQsfz8BqnlJLkTx9funj-142" value="Nombre CHAR(15)" style="shape=partialRectangle;connectable=0;fillColor=none;top=0;left=0;bottom=0;right=0;align=left;spacingLeft=6;fontStyle=5;overflow=hidden;html=1;whiteSpace=wrap;" vertex="1" parent="EQsfz8BqnlJLkTx9funj-140">
          <mxGeometry x="30" width="190" height="30" as="geometry">
            <mxRectangle width="190" height="30" as="alternateBounds" />
          </mxGeometry>
        </mxCell>
        <mxCell id="EQsfz8BqnlJLkTx9funj-143" value="" style="shape=tableRow;horizontal=0;startSize=0;swimlaneHead=0;swimlaneBody=0;fillColor=none;collapsible=0;dropTarget=0;points=[[0,0.5],[1,0.5]];portConstraint=eastwest;top=0;left=0;right=0;bottom=0;html=1;" vertex="1" parent="EQsfz8BqnlJLkTx9funj-139">
          <mxGeometry y="60" width="220" height="30" as="geometry" />
        </mxCell>
        <mxCell id="EQsfz8BqnlJLkTx9funj-144" value="" style="shape=partialRectangle;connectable=0;fillColor=none;top=0;left=0;bottom=0;right=0;editable=1;overflow=hidden;html=1;whiteSpace=wrap;" vertex="1" parent="EQsfz8BqnlJLkTx9funj-143">
          <mxGeometry width="30" height="30" as="geometry">
            <mxRectangle width="30" height="30" as="alternateBounds" />
          </mxGeometry>
        </mxCell>
        <mxCell id="EQsfz8BqnlJLkTx9funj-145" value="Contraseña VARCHAR(25)" style="shape=partialRectangle;connectable=0;fillColor=none;top=0;left=0;bottom=0;right=0;align=left;spacingLeft=6;overflow=hidden;html=1;whiteSpace=wrap;" vertex="1" parent="EQsfz8BqnlJLkTx9funj-143">
          <mxGeometry x="30" width="190" height="30" as="geometry">
            <mxRectangle width="190" height="30" as="alternateBounds" />
          </mxGeometry>
        </mxCell>
        <mxCell id="EQsfz8BqnlJLkTx9funj-146" value="" style="shape=tableRow;horizontal=0;startSize=0;swimlaneHead=0;swimlaneBody=0;fillColor=none;collapsible=0;dropTarget=0;points=[[0,0.5],[1,0.5]];portConstraint=eastwest;top=0;left=0;right=0;bottom=0;html=1;" vertex="1" parent="EQsfz8BqnlJLkTx9funj-139">
          <mxGeometry y="90" width="220" height="30" as="geometry" />
        </mxCell>
        <mxCell id="EQsfz8BqnlJLkTx9funj-147" value="" style="shape=partialRectangle;connectable=0;fillColor=none;top=0;left=0;bottom=0;right=0;editable=1;overflow=hidden;html=1;whiteSpace=wrap;" vertex="1" parent="EQsfz8BqnlJLkTx9funj-146">
          <mxGeometry width="30" height="30" as="geometry">
            <mxRectangle width="30" height="30" as="alternateBounds" />
          </mxGeometry>
        </mxCell>
        <mxCell id="EQsfz8BqnlJLkTx9funj-148" value="id_rol TINYINT" style="shape=partialRectangle;connectable=0;fillColor=none;top=0;left=0;bottom=0;right=0;align=left;spacingLeft=6;overflow=hidden;html=1;whiteSpace=wrap;" vertex="1" parent="EQsfz8BqnlJLkTx9funj-146">
          <mxGeometry x="30" width="190" height="30" as="geometry">
            <mxRectangle width="190" height="30" as="alternateBounds" />
          </mxGeometry>
        </mxCell>
        <mxCell id="EQsfz8BqnlJLkTx9funj-149" value="factura" style="shape=table;startSize=30;container=1;collapsible=1;childLayout=tableLayout;fixedRows=1;rowLines=0;fontStyle=1;align=center;resizeLast=1;html=1;whiteSpace=wrap;" vertex="1" parent="1">
          <mxGeometry x="2119.97" y="1520" width="220" height="150" as="geometry" />
        </mxCell>
        <mxCell id="EQsfz8BqnlJLkTx9funj-150" value="" style="shape=tableRow;horizontal=0;startSize=0;swimlaneHead=0;swimlaneBody=0;fillColor=none;collapsible=0;dropTarget=0;points=[[0,0.5],[1,0.5]];portConstraint=eastwest;top=0;left=0;right=0;bottom=0;html=1;" vertex="1" parent="EQsfz8BqnlJLkTx9funj-149">
          <mxGeometry y="30" width="220" height="30" as="geometry" />
        </mxCell>
        <mxCell id="EQsfz8BqnlJLkTx9funj-151" value="PK" style="shape=partialRectangle;connectable=0;fillColor=none;top=0;left=0;bottom=0;right=0;fontStyle=1;overflow=hidden;html=1;whiteSpace=wrap;" vertex="1" parent="EQsfz8BqnlJLkTx9funj-150">
          <mxGeometry width="30.059999999999945" height="30" as="geometry">
            <mxRectangle width="30.059999999999945" height="30" as="alternateBounds" />
          </mxGeometry>
        </mxCell>
        <mxCell id="EQsfz8BqnlJLkTx9funj-152" value="id_factura INT" style="shape=partialRectangle;connectable=0;fillColor=none;top=0;left=0;bottom=0;right=0;align=left;spacingLeft=6;fontStyle=5;overflow=hidden;html=1;whiteSpace=wrap;" vertex="1" parent="EQsfz8BqnlJLkTx9funj-150">
          <mxGeometry x="30.059999999999945" width="189.94000000000005" height="30" as="geometry">
            <mxRectangle width="189.94000000000005" height="30" as="alternateBounds" />
          </mxGeometry>
        </mxCell>
        <mxCell id="EQsfz8BqnlJLkTx9funj-153" value="" style="shape=tableRow;horizontal=0;startSize=0;swimlaneHead=0;swimlaneBody=0;fillColor=none;collapsible=0;dropTarget=0;points=[[0,0.5],[1,0.5]];portConstraint=eastwest;top=0;left=0;right=0;bottom=1;html=1;" vertex="1" parent="EQsfz8BqnlJLkTx9funj-149">
          <mxGeometry y="60" width="220" height="30" as="geometry" />
        </mxCell>
        <mxCell id="EQsfz8BqnlJLkTx9funj-154" value="FK" style="shape=partialRectangle;connectable=0;fillColor=none;top=0;left=0;bottom=0;right=0;fontStyle=1;overflow=hidden;html=1;whiteSpace=wrap;" vertex="1" parent="EQsfz8BqnlJLkTx9funj-153">
          <mxGeometry width="30.059999999999945" height="30" as="geometry">
            <mxRectangle width="30.059999999999945" height="30" as="alternateBounds" />
          </mxGeometry>
        </mxCell>
        <mxCell id="EQsfz8BqnlJLkTx9funj-155" value="id_recibo INT" style="shape=partialRectangle;connectable=0;fillColor=none;top=0;left=0;bottom=0;right=0;align=left;spacingLeft=6;fontStyle=5;overflow=hidden;html=1;whiteSpace=wrap;" vertex="1" parent="EQsfz8BqnlJLkTx9funj-153">
          <mxGeometry x="30.059999999999945" width="189.94000000000005" height="30" as="geometry">
            <mxRectangle width="189.94000000000005" height="30" as="alternateBounds" />
          </mxGeometry>
        </mxCell>
        <mxCell id="EQsfz8BqnlJLkTx9funj-156" value="" style="shape=tableRow;horizontal=0;startSize=0;swimlaneHead=0;swimlaneBody=0;fillColor=none;collapsible=0;dropTarget=0;points=[[0,0.5],[1,0.5]];portConstraint=eastwest;top=0;left=0;right=0;bottom=0;html=1;" vertex="1" parent="EQsfz8BqnlJLkTx9funj-149">
          <mxGeometry y="90" width="220" height="30" as="geometry" />
        </mxCell>
        <mxCell id="EQsfz8BqnlJLkTx9funj-157" value="" style="shape=partialRectangle;connectable=0;fillColor=none;top=0;left=0;bottom=0;right=0;editable=1;overflow=hidden;html=1;whiteSpace=wrap;" vertex="1" parent="EQsfz8BqnlJLkTx9funj-156">
          <mxGeometry width="30.059999999999945" height="30" as="geometry">
            <mxRectangle width="30.059999999999945" height="30" as="alternateBounds" />
          </mxGeometry>
        </mxCell>
        <mxCell id="EQsfz8BqnlJLkTx9funj-158" value="fechaRealización DATETIME" style="shape=partialRectangle;connectable=0;fillColor=none;top=0;left=0;bottom=0;right=0;align=left;spacingLeft=6;overflow=hidden;html=1;whiteSpace=wrap;" vertex="1" parent="EQsfz8BqnlJLkTx9funj-156">
          <mxGeometry x="30.059999999999945" width="189.94000000000005" height="30" as="geometry">
            <mxRectangle width="189.94000000000005" height="30" as="alternateBounds" />
          </mxGeometry>
        </mxCell>
        <mxCell id="EQsfz8BqnlJLkTx9funj-159" value="" style="shape=tableRow;horizontal=0;startSize=0;swimlaneHead=0;swimlaneBody=0;fillColor=none;collapsible=0;dropTarget=0;points=[[0,0.5],[1,0.5]];portConstraint=eastwest;top=0;left=0;right=0;bottom=0;html=1;" vertex="1" parent="EQsfz8BqnlJLkTx9funj-149">
          <mxGeometry y="120" width="220" height="30" as="geometry" />
        </mxCell>
        <mxCell id="EQsfz8BqnlJLkTx9funj-160" value="" style="shape=partialRectangle;connectable=0;fillColor=none;top=0;left=0;bottom=0;right=0;editable=1;overflow=hidden;html=1;whiteSpace=wrap;" vertex="1" parent="EQsfz8BqnlJLkTx9funj-159">
          <mxGeometry width="30.059999999999945" height="30" as="geometry">
            <mxRectangle width="30.059999999999945" height="30" as="alternateBounds" />
          </mxGeometry>
        </mxCell>
        <mxCell id="EQsfz8BqnlJLkTx9funj-161" value="totalCuenta DECIMAL(15, 3)" style="shape=partialRectangle;connectable=0;fillColor=none;top=0;left=0;bottom=0;right=0;align=left;spacingLeft=6;overflow=hidden;html=1;whiteSpace=wrap;" vertex="1" parent="EQsfz8BqnlJLkTx9funj-159">
          <mxGeometry x="30.059999999999945" width="189.94000000000005" height="30" as="geometry">
            <mxRectangle width="189.94000000000005" height="30" as="alternateBounds" />
          </mxGeometry>
        </mxCell>
        <mxCell id="EQsfz8BqnlJLkTx9funj-162" value="recibo" style="shape=table;startSize=30;container=1;collapsible=1;childLayout=tableLayout;fixedRows=1;rowLines=0;fontStyle=1;align=center;resizeLast=1;html=1;whiteSpace=wrap;" vertex="1" parent="1">
          <mxGeometry x="2119.97" y="1410" width="220" height="90" as="geometry" />
        </mxCell>
        <mxCell id="EQsfz8BqnlJLkTx9funj-163" value="" style="shape=tableRow;horizontal=0;startSize=0;swimlaneHead=0;swimlaneBody=0;fillColor=none;collapsible=0;dropTarget=0;points=[[0,0.5],[1,0.5]];portConstraint=eastwest;top=0;left=0;right=0;bottom=1;html=1;" vertex="1" parent="EQsfz8BqnlJLkTx9funj-162">
          <mxGeometry y="30" width="220" height="30" as="geometry" />
        </mxCell>
        <mxCell id="EQsfz8BqnlJLkTx9funj-164" value="FK" style="shape=partialRectangle;connectable=0;fillColor=none;top=0;left=0;bottom=0;right=0;fontStyle=1;overflow=hidden;html=1;whiteSpace=wrap;" vertex="1" parent="EQsfz8BqnlJLkTx9funj-163">
          <mxGeometry width="40.059999999999945" height="30" as="geometry">
            <mxRectangle width="40.059999999999945" height="30" as="alternateBounds" />
          </mxGeometry>
        </mxCell>
        <mxCell id="EQsfz8BqnlJLkTx9funj-165" value="id_recibo INT" style="shape=partialRectangle;connectable=0;fillColor=none;top=0;left=0;bottom=0;right=0;align=left;spacingLeft=6;fontStyle=5;overflow=hidden;html=1;whiteSpace=wrap;" vertex="1" parent="EQsfz8BqnlJLkTx9funj-163">
          <mxGeometry x="40.059999999999945" width="179.94000000000005" height="30" as="geometry">
            <mxRectangle width="179.94000000000005" height="30" as="alternateBounds" />
          </mxGeometry>
        </mxCell>
        <mxCell id="EQsfz8BqnlJLkTx9funj-166" value="" style="shape=tableRow;horizontal=0;startSize=0;swimlaneHead=0;swimlaneBody=0;fillColor=none;collapsible=0;dropTarget=0;points=[[0,0.5],[1,0.5]];portConstraint=eastwest;top=0;left=0;right=0;bottom=0;html=1;" vertex="1" parent="EQsfz8BqnlJLkTx9funj-162">
          <mxGeometry y="60" width="220" height="30" as="geometry" />
        </mxCell>
        <mxCell id="EQsfz8BqnlJLkTx9funj-167" value="" style="shape=partialRectangle;connectable=0;fillColor=none;top=0;left=0;bottom=0;right=0;editable=1;overflow=hidden;html=1;whiteSpace=wrap;" vertex="1" parent="EQsfz8BqnlJLkTx9funj-166">
          <mxGeometry width="40.059999999999945" height="30" as="geometry">
            <mxRectangle width="40.059999999999945" height="30" as="alternateBounds" />
          </mxGeometry>
        </mxCell>
        <mxCell id="EQsfz8BqnlJLkTx9funj-168" value="UrlArchivo VARCHAR(60)" style="shape=partialRectangle;connectable=0;fillColor=none;top=0;left=0;bottom=0;right=0;align=left;spacingLeft=6;overflow=hidden;html=1;whiteSpace=wrap;" vertex="1" parent="EQsfz8BqnlJLkTx9funj-166">
          <mxGeometry x="40.059999999999945" width="179.94000000000005" height="30" as="geometry">
            <mxRectangle width="179.94000000000005" height="30" as="alternateBounds" />
          </mxGeometry>
        </mxCell>
        <mxCell id="EQsfz8BqnlJLkTx9funj-169" style="edgeStyle=orthogonalEdgeStyle;rounded=0;orthogonalLoop=1;jettySize=auto;html=1;exitX=1;exitY=0.5;exitDx=0;exitDy=0;entryX=0;entryY=0.5;entryDx=0;entryDy=0;" edge="1" source="EQsfz8BqnlJLkTx9funj-140" target="EQsfz8BqnlJLkTx9funj-136" parent="1">
          <mxGeometry relative="1" as="geometry">
            <Array as="points">
              <mxPoint x="1779.91" y="1805" />
              <mxPoint x="1779.91" y="1805" />
            </Array>
            <mxPoint x="1819.91" y="1770" as="targetPoint" />
          </mxGeometry>
        </mxCell>
        <mxCell id="EQsfz8BqnlJLkTx9funj-170" style="edgeStyle=orthogonalEdgeStyle;rounded=0;orthogonalLoop=1;jettySize=auto;html=1;exitX=0;exitY=0.5;exitDx=0;exitDy=0;entryX=1;entryY=0.5;entryDx=0;entryDy=0;" edge="1" source="EQsfz8BqnlJLkTx9funj-150" target="EQsfz8BqnlJLkTx9funj-127" parent="1">
          <mxGeometry relative="1" as="geometry">
            <Array as="points">
              <mxPoint x="2079.91" y="1565" />
              <mxPoint x="2079.91" y="1715" />
            </Array>
          </mxGeometry>
        </mxCell>
        <mxCell id="EQsfz8BqnlJLkTx9funj-171" value="productosCompra" style="shape=table;startSize=30;container=1;collapsible=1;childLayout=tableLayout;fixedRows=1;rowLines=0;fontStyle=1;align=center;resizeLast=1;html=1;whiteSpace=wrap;" vertex="1" parent="1">
          <mxGeometry x="2119.97" y="1700" width="220.05999999999995" height="180" as="geometry" />
        </mxCell>
        <mxCell id="EQsfz8BqnlJLkTx9funj-172" value="" style="shape=tableRow;horizontal=0;startSize=0;swimlaneHead=0;swimlaneBody=0;fillColor=none;collapsible=0;dropTarget=0;points=[[0,0.5],[1,0.5]];portConstraint=eastwest;top=0;left=0;right=0;bottom=0;html=1;" vertex="1" parent="EQsfz8BqnlJLkTx9funj-171">
          <mxGeometry y="30" width="220.05999999999995" height="30" as="geometry" />
        </mxCell>
        <mxCell id="EQsfz8BqnlJLkTx9funj-173" value="PK" style="shape=partialRectangle;connectable=0;fillColor=none;top=0;left=0;bottom=0;right=0;fontStyle=1;overflow=hidden;html=1;whiteSpace=wrap;" vertex="1" parent="EQsfz8BqnlJLkTx9funj-172">
          <mxGeometry width="29.940000000000055" height="30" as="geometry">
            <mxRectangle width="29.940000000000055" height="30" as="alternateBounds" />
          </mxGeometry>
        </mxCell>
        <mxCell id="EQsfz8BqnlJLkTx9funj-174" value="id_productoCompra INT" style="shape=partialRectangle;connectable=0;fillColor=none;top=0;left=0;bottom=0;right=0;align=left;spacingLeft=6;fontStyle=5;overflow=hidden;html=1;whiteSpace=wrap;" vertex="1" parent="EQsfz8BqnlJLkTx9funj-172">
          <mxGeometry x="29.940000000000055" width="190.1199999999999" height="30" as="geometry">
            <mxRectangle width="190.1199999999999" height="30" as="alternateBounds" />
          </mxGeometry>
        </mxCell>
        <mxCell id="EQsfz8BqnlJLkTx9funj-175" value="" style="shape=tableRow;horizontal=0;startSize=0;swimlaneHead=0;swimlaneBody=0;fillColor=none;collapsible=0;dropTarget=0;points=[[0,0.5],[1,0.5]];portConstraint=eastwest;top=0;left=0;right=0;bottom=0;html=1;" vertex="1" parent="EQsfz8BqnlJLkTx9funj-171">
          <mxGeometry y="60" width="220.05999999999995" height="30" as="geometry" />
        </mxCell>
        <mxCell id="EQsfz8BqnlJLkTx9funj-176" value="FK" style="shape=partialRectangle;connectable=0;fillColor=none;top=0;left=0;bottom=0;right=0;fontStyle=1;overflow=hidden;html=1;whiteSpace=wrap;" vertex="1" parent="EQsfz8BqnlJLkTx9funj-175">
          <mxGeometry width="29.940000000000055" height="30" as="geometry">
            <mxRectangle width="29.940000000000055" height="30" as="alternateBounds" />
          </mxGeometry>
        </mxCell>
        <mxCell id="EQsfz8BqnlJLkTx9funj-177" value="código_producto CHAR(25)" style="shape=partialRectangle;connectable=0;fillColor=none;top=0;left=0;bottom=0;right=0;align=left;spacingLeft=6;fontStyle=5;overflow=hidden;html=1;whiteSpace=wrap;" vertex="1" parent="EQsfz8BqnlJLkTx9funj-175">
          <mxGeometry x="29.940000000000055" width="190.1199999999999" height="30" as="geometry">
            <mxRectangle width="190.1199999999999" height="30" as="alternateBounds" />
          </mxGeometry>
        </mxCell>
        <mxCell id="EQsfz8BqnlJLkTx9funj-178" value="" style="shape=tableRow;horizontal=0;startSize=0;swimlaneHead=0;swimlaneBody=0;fillColor=none;collapsible=0;dropTarget=0;points=[[0,0.5],[1,0.5]];portConstraint=eastwest;top=0;left=0;right=0;bottom=1;html=1;" vertex="1" parent="EQsfz8BqnlJLkTx9funj-171">
          <mxGeometry y="90" width="220.05999999999995" height="30" as="geometry" />
        </mxCell>
        <mxCell id="EQsfz8BqnlJLkTx9funj-179" value="FK" style="shape=partialRectangle;connectable=0;fillColor=none;top=0;left=0;bottom=0;right=0;fontStyle=1;overflow=hidden;html=1;whiteSpace=wrap;" vertex="1" parent="EQsfz8BqnlJLkTx9funj-178">
          <mxGeometry width="29.940000000000055" height="30" as="geometry">
            <mxRectangle width="29.940000000000055" height="30" as="alternateBounds" />
          </mxGeometry>
        </mxCell>
        <mxCell id="EQsfz8BqnlJLkTx9funj-180" value="&lt;div&gt;id_factura INT&lt;/div&gt;" style="shape=partialRectangle;connectable=0;fillColor=none;top=0;left=0;bottom=0;right=0;align=left;spacingLeft=6;fontStyle=5;overflow=hidden;html=1;whiteSpace=wrap;" vertex="1" parent="EQsfz8BqnlJLkTx9funj-178">
          <mxGeometry x="29.940000000000055" width="190.1199999999999" height="30" as="geometry">
            <mxRectangle width="190.1199999999999" height="30" as="alternateBounds" />
          </mxGeometry>
        </mxCell>
        <mxCell id="EQsfz8BqnlJLkTx9funj-181" value="" style="shape=tableRow;horizontal=0;startSize=0;swimlaneHead=0;swimlaneBody=0;fillColor=none;collapsible=0;dropTarget=0;points=[[0,0.5],[1,0.5]];portConstraint=eastwest;top=0;left=0;right=0;bottom=0;html=1;" vertex="1" parent="EQsfz8BqnlJLkTx9funj-171">
          <mxGeometry y="120" width="220.05999999999995" height="30" as="geometry" />
        </mxCell>
        <mxCell id="EQsfz8BqnlJLkTx9funj-182" value="" style="shape=partialRectangle;connectable=0;fillColor=none;top=0;left=0;bottom=0;right=0;editable=1;overflow=hidden;html=1;whiteSpace=wrap;" vertex="1" parent="EQsfz8BqnlJLkTx9funj-181">
          <mxGeometry width="29.940000000000055" height="30" as="geometry">
            <mxRectangle width="29.940000000000055" height="30" as="alternateBounds" />
          </mxGeometry>
        </mxCell>
        <mxCell id="EQsfz8BqnlJLkTx9funj-183" value="precio DECIMAL(10, 3)" style="shape=partialRectangle;connectable=0;fillColor=none;top=0;left=0;bottom=0;right=0;align=left;spacingLeft=6;overflow=hidden;html=1;whiteSpace=wrap;" vertex="1" parent="EQsfz8BqnlJLkTx9funj-181">
          <mxGeometry x="29.940000000000055" width="190.1199999999999" height="30" as="geometry">
            <mxRectangle width="190.1199999999999" height="30" as="alternateBounds" />
          </mxGeometry>
        </mxCell>
        <mxCell id="EQsfz8BqnlJLkTx9funj-184" value="" style="shape=tableRow;horizontal=0;startSize=0;swimlaneHead=0;swimlaneBody=0;fillColor=none;collapsible=0;dropTarget=0;points=[[0,0.5],[1,0.5]];portConstraint=eastwest;top=0;left=0;right=0;bottom=0;html=1;" vertex="1" parent="EQsfz8BqnlJLkTx9funj-171">
          <mxGeometry y="150" width="220.05999999999995" height="30" as="geometry" />
        </mxCell>
        <mxCell id="EQsfz8BqnlJLkTx9funj-185" value="" style="shape=partialRectangle;connectable=0;fillColor=none;top=0;left=0;bottom=0;right=0;editable=1;overflow=hidden;html=1;whiteSpace=wrap;" vertex="1" parent="EQsfz8BqnlJLkTx9funj-184">
          <mxGeometry width="29.940000000000055" height="30" as="geometry">
            <mxRectangle width="29.940000000000055" height="30" as="alternateBounds" />
          </mxGeometry>
        </mxCell>
        <mxCell id="EQsfz8BqnlJLkTx9funj-186" value="cántidad DECIMAL(10, 3)" style="shape=partialRectangle;connectable=0;fillColor=none;top=0;left=0;bottom=0;right=0;align=left;spacingLeft=6;overflow=hidden;html=1;whiteSpace=wrap;" vertex="1" parent="EQsfz8BqnlJLkTx9funj-184">
          <mxGeometry x="29.940000000000055" width="190.1199999999999" height="30" as="geometry">
            <mxRectangle width="190.1199999999999" height="30" as="alternateBounds" />
          </mxGeometry>
        </mxCell>
        <mxCell id="EQsfz8BqnlJLkTx9funj-187" value="producto" style="shape=table;startSize=30;container=1;collapsible=1;childLayout=tableLayout;fixedRows=1;rowLines=0;fontStyle=1;align=center;resizeLast=1;html=1;whiteSpace=wrap;" vertex="1" parent="1">
          <mxGeometry x="1509.91" y="1490" width="220" height="210" as="geometry" />
        </mxCell>
        <mxCell id="EQsfz8BqnlJLkTx9funj-188" value="" style="shape=tableRow;horizontal=0;startSize=0;swimlaneHead=0;swimlaneBody=0;fillColor=none;collapsible=0;dropTarget=0;points=[[0,0.5],[1,0.5]];portConstraint=eastwest;top=0;left=0;right=0;bottom=0;html=1;" vertex="1" parent="EQsfz8BqnlJLkTx9funj-187">
          <mxGeometry y="30" width="220" height="30" as="geometry" />
        </mxCell>
        <mxCell id="EQsfz8BqnlJLkTx9funj-189" value="PK" style="shape=partialRectangle;connectable=0;fillColor=none;top=0;left=0;bottom=0;right=0;fontStyle=1;overflow=hidden;html=1;whiteSpace=wrap;" vertex="1" parent="EQsfz8BqnlJLkTx9funj-188">
          <mxGeometry width="30" height="30" as="geometry">
            <mxRectangle width="30" height="30" as="alternateBounds" />
          </mxGeometry>
        </mxCell>
        <mxCell id="EQsfz8BqnlJLkTx9funj-190" value="codigo CHAR(25)" style="shape=partialRectangle;connectable=0;fillColor=none;top=0;left=0;bottom=0;right=0;align=left;spacingLeft=6;fontStyle=5;overflow=hidden;html=1;whiteSpace=wrap;" vertex="1" parent="EQsfz8BqnlJLkTx9funj-188">
          <mxGeometry x="30" width="190" height="30" as="geometry">
            <mxRectangle width="190" height="30" as="alternateBounds" />
          </mxGeometry>
        </mxCell>
        <mxCell id="EQsfz8BqnlJLkTx9funj-191" value="" style="shape=tableRow;horizontal=0;startSize=0;swimlaneHead=0;swimlaneBody=0;fillColor=none;collapsible=0;dropTarget=0;points=[[0,0.5],[1,0.5]];portConstraint=eastwest;top=0;left=0;right=0;bottom=1;html=1;" vertex="1" parent="EQsfz8BqnlJLkTx9funj-187">
          <mxGeometry y="60" width="220" height="30" as="geometry" />
        </mxCell>
        <mxCell id="EQsfz8BqnlJLkTx9funj-192" value="FK" style="shape=partialRectangle;connectable=0;fillColor=none;top=0;left=0;bottom=0;right=0;fontStyle=1;overflow=hidden;html=1;whiteSpace=wrap;" vertex="1" parent="EQsfz8BqnlJLkTx9funj-191">
          <mxGeometry width="30" height="30" as="geometry">
            <mxRectangle width="30" height="30" as="alternateBounds" />
          </mxGeometry>
        </mxCell>
        <mxCell id="EQsfz8BqnlJLkTx9funj-193" value="id_subcategoría INT" style="shape=partialRectangle;connectable=0;fillColor=none;top=0;left=0;bottom=0;right=0;align=left;spacingLeft=6;fontStyle=5;overflow=hidden;html=1;whiteSpace=wrap;" vertex="1" parent="EQsfz8BqnlJLkTx9funj-191">
          <mxGeometry x="30" width="190" height="30" as="geometry">
            <mxRectangle width="190" height="30" as="alternateBounds" />
          </mxGeometry>
        </mxCell>
        <mxCell id="EQsfz8BqnlJLkTx9funj-194" value="" style="shape=tableRow;horizontal=0;startSize=0;swimlaneHead=0;swimlaneBody=0;fillColor=none;collapsible=0;dropTarget=0;points=[[0,0.5],[1,0.5]];portConstraint=eastwest;top=0;left=0;right=0;bottom=0;html=1;" vertex="1" parent="EQsfz8BqnlJLkTx9funj-187">
          <mxGeometry y="90" width="220" height="30" as="geometry" />
        </mxCell>
        <mxCell id="EQsfz8BqnlJLkTx9funj-195" value="" style="shape=partialRectangle;connectable=0;fillColor=none;top=0;left=0;bottom=0;right=0;editable=1;overflow=hidden;html=1;whiteSpace=wrap;" vertex="1" parent="EQsfz8BqnlJLkTx9funj-194">
          <mxGeometry width="30" height="30" as="geometry">
            <mxRectangle width="30" height="30" as="alternateBounds" />
          </mxGeometry>
        </mxCell>
        <mxCell id="EQsfz8BqnlJLkTx9funj-196" value="producto CHAR(25)" style="shape=partialRectangle;connectable=0;fillColor=none;top=0;left=0;bottom=0;right=0;align=left;spacingLeft=6;overflow=hidden;html=1;whiteSpace=wrap;" vertex="1" parent="EQsfz8BqnlJLkTx9funj-194">
          <mxGeometry x="30" width="190" height="30" as="geometry">
            <mxRectangle width="190" height="30" as="alternateBounds" />
          </mxGeometry>
        </mxCell>
        <mxCell id="EQsfz8BqnlJLkTx9funj-197" value="" style="shape=tableRow;horizontal=0;startSize=0;swimlaneHead=0;swimlaneBody=0;fillColor=none;collapsible=0;dropTarget=0;points=[[0,0.5],[1,0.5]];portConstraint=eastwest;top=0;left=0;right=0;bottom=0;html=1;" vertex="1" parent="EQsfz8BqnlJLkTx9funj-187">
          <mxGeometry y="120" width="220" height="30" as="geometry" />
        </mxCell>
        <mxCell id="EQsfz8BqnlJLkTx9funj-198" value="" style="shape=partialRectangle;connectable=0;fillColor=none;top=0;left=0;bottom=0;right=0;editable=1;overflow=hidden;html=1;whiteSpace=wrap;" vertex="1" parent="EQsfz8BqnlJLkTx9funj-197">
          <mxGeometry width="30" height="30" as="geometry">
            <mxRectangle width="30" height="30" as="alternateBounds" />
          </mxGeometry>
        </mxCell>
        <mxCell id="EQsfz8BqnlJLkTx9funj-199" value="detalle CHAR(25)" style="shape=partialRectangle;connectable=0;fillColor=none;top=0;left=0;bottom=0;right=0;align=left;spacingLeft=6;overflow=hidden;html=1;whiteSpace=wrap;" vertex="1" parent="EQsfz8BqnlJLkTx9funj-197">
          <mxGeometry x="30" width="190" height="30" as="geometry">
            <mxRectangle width="190" height="30" as="alternateBounds" />
          </mxGeometry>
        </mxCell>
        <mxCell id="EQsfz8BqnlJLkTx9funj-200" value="" style="shape=tableRow;horizontal=0;startSize=0;swimlaneHead=0;swimlaneBody=0;fillColor=none;collapsible=0;dropTarget=0;points=[[0,0.5],[1,0.5]];portConstraint=eastwest;top=0;left=0;right=0;bottom=0;html=1;" vertex="1" parent="EQsfz8BqnlJLkTx9funj-187">
          <mxGeometry y="150" width="220" height="30" as="geometry" />
        </mxCell>
        <mxCell id="EQsfz8BqnlJLkTx9funj-201" value="" style="shape=partialRectangle;connectable=0;fillColor=none;top=0;left=0;bottom=0;right=0;editable=1;overflow=hidden;html=1;whiteSpace=wrap;" vertex="1" parent="EQsfz8BqnlJLkTx9funj-200">
          <mxGeometry width="30" height="30" as="geometry">
            <mxRectangle width="30" height="30" as="alternateBounds" />
          </mxGeometry>
        </mxCell>
        <mxCell id="EQsfz8BqnlJLkTx9funj-202" value="precio DECIMAL(10, 3)" style="shape=partialRectangle;connectable=0;fillColor=none;top=0;left=0;bottom=0;right=0;align=left;spacingLeft=6;overflow=hidden;html=1;whiteSpace=wrap;" vertex="1" parent="EQsfz8BqnlJLkTx9funj-200">
          <mxGeometry x="30" width="190" height="30" as="geometry">
            <mxRectangle width="190" height="30" as="alternateBounds" />
          </mxGeometry>
        </mxCell>
        <mxCell id="EQsfz8BqnlJLkTx9funj-206" value="" style="shape=tableRow;horizontal=0;startSize=0;swimlaneHead=0;swimlaneBody=0;fillColor=none;collapsible=0;dropTarget=0;points=[[0,0.5],[1,0.5]];portConstraint=eastwest;top=0;left=0;right=0;bottom=0;html=1;" vertex="1" parent="EQsfz8BqnlJLkTx9funj-187">
          <mxGeometry y="180" width="220" height="30" as="geometry" />
        </mxCell>
        <mxCell id="EQsfz8BqnlJLkTx9funj-207" value="" style="shape=partialRectangle;connectable=0;fillColor=none;top=0;left=0;bottom=0;right=0;editable=1;overflow=hidden;html=1;whiteSpace=wrap;" vertex="1" parent="EQsfz8BqnlJLkTx9funj-206">
          <mxGeometry width="30" height="30" as="geometry">
            <mxRectangle width="30" height="30" as="alternateBounds" />
          </mxGeometry>
        </mxCell>
        <mxCell id="EQsfz8BqnlJLkTx9funj-208" value="fechaModificación DATE&amp;nbsp;" style="shape=partialRectangle;connectable=0;fillColor=none;top=0;left=0;bottom=0;right=0;align=left;spacingLeft=6;overflow=hidden;html=1;whiteSpace=wrap;" vertex="1" parent="EQsfz8BqnlJLkTx9funj-206">
          <mxGeometry x="30" width="190" height="30" as="geometry">
            <mxRectangle width="190" height="30" as="alternateBounds" />
          </mxGeometry>
        </mxCell>
        <mxCell id="EQsfz8BqnlJLkTx9funj-209" style="edgeStyle=orthogonalEdgeStyle;rounded=0;orthogonalLoop=1;jettySize=auto;html=1;exitX=1;exitY=0.5;exitDx=0;exitDy=0;entryX=0;entryY=0.5;entryDx=0;entryDy=0;" edge="1" source="EQsfz8BqnlJLkTx9funj-188" target="EQsfz8BqnlJLkTx9funj-133" parent="1">
          <mxGeometry relative="1" as="geometry">
            <Array as="points">
              <mxPoint x="1769.91" y="1535" />
              <mxPoint x="1769.91" y="1775" />
            </Array>
            <mxPoint x="1819.91" y="1740" as="targetPoint" />
          </mxGeometry>
        </mxCell>
        <mxCell id="EQsfz8BqnlJLkTx9funj-210" value="categoría" style="shape=table;startSize=30;container=1;collapsible=1;childLayout=tableLayout;fixedRows=1;rowLines=0;fontStyle=1;align=center;resizeLast=1;html=1;whiteSpace=wrap;" vertex="1" parent="1">
          <mxGeometry x="1509.91" y="1220" width="220" height="90" as="geometry" />
        </mxCell>
        <mxCell id="EQsfz8BqnlJLkTx9funj-211" value="" style="shape=tableRow;horizontal=0;startSize=0;swimlaneHead=0;swimlaneBody=0;fillColor=none;collapsible=0;dropTarget=0;points=[[0,0.5],[1,0.5]];portConstraint=eastwest;top=0;left=0;right=0;bottom=1;html=1;" vertex="1" parent="EQsfz8BqnlJLkTx9funj-210">
          <mxGeometry y="30" width="220" height="30" as="geometry" />
        </mxCell>
        <mxCell id="EQsfz8BqnlJLkTx9funj-212" value="PK" style="shape=partialRectangle;connectable=0;fillColor=none;top=0;left=0;bottom=0;right=0;fontStyle=1;overflow=hidden;html=1;whiteSpace=wrap;" vertex="1" parent="EQsfz8BqnlJLkTx9funj-211">
          <mxGeometry width="50" height="30" as="geometry">
            <mxRectangle width="50" height="30" as="alternateBounds" />
          </mxGeometry>
        </mxCell>
        <mxCell id="EQsfz8BqnlJLkTx9funj-213" value="ID_Categoría INT" style="shape=partialRectangle;connectable=0;fillColor=none;top=0;left=0;bottom=0;right=0;align=left;spacingLeft=6;fontStyle=5;overflow=hidden;html=1;whiteSpace=wrap;" vertex="1" parent="EQsfz8BqnlJLkTx9funj-211">
          <mxGeometry x="50" width="170" height="30" as="geometry">
            <mxRectangle width="170" height="30" as="alternateBounds" />
          </mxGeometry>
        </mxCell>
        <mxCell id="EQsfz8BqnlJLkTx9funj-214" value="" style="shape=tableRow;horizontal=0;startSize=0;swimlaneHead=0;swimlaneBody=0;fillColor=none;collapsible=0;dropTarget=0;points=[[0,0.5],[1,0.5]];portConstraint=eastwest;top=0;left=0;right=0;bottom=0;html=1;" vertex="1" parent="EQsfz8BqnlJLkTx9funj-210">
          <mxGeometry y="60" width="220" height="30" as="geometry" />
        </mxCell>
        <mxCell id="EQsfz8BqnlJLkTx9funj-215" value="" style="shape=partialRectangle;connectable=0;fillColor=none;top=0;left=0;bottom=0;right=0;editable=1;overflow=hidden;html=1;whiteSpace=wrap;" vertex="1" parent="EQsfz8BqnlJLkTx9funj-214">
          <mxGeometry width="50" height="30" as="geometry">
            <mxRectangle width="50" height="30" as="alternateBounds" />
          </mxGeometry>
        </mxCell>
        <mxCell id="EQsfz8BqnlJLkTx9funj-216" value="Nombre CHAR(15)" style="shape=partialRectangle;connectable=0;fillColor=none;top=0;left=0;bottom=0;right=0;align=left;spacingLeft=6;overflow=hidden;html=1;whiteSpace=wrap;" vertex="1" parent="EQsfz8BqnlJLkTx9funj-214">
          <mxGeometry x="50" width="170" height="30" as="geometry">
            <mxRectangle width="170" height="30" as="alternateBounds" />
          </mxGeometry>
        </mxCell>
        <mxCell id="EQsfz8BqnlJLkTx9funj-217" value="metodoPago" style="shape=table;startSize=30;container=1;collapsible=1;childLayout=tableLayout;fixedRows=1;rowLines=0;fontStyle=1;align=center;resizeLast=1;html=1;whiteSpace=wrap;" vertex="1" parent="1">
          <mxGeometry x="1820" y="1410" width="220" height="120" as="geometry" />
        </mxCell>
        <mxCell id="EQsfz8BqnlJLkTx9funj-218" value="" style="shape=tableRow;horizontal=0;startSize=0;swimlaneHead=0;swimlaneBody=0;fillColor=none;collapsible=0;dropTarget=0;points=[[0,0.5],[1,0.5]];portConstraint=eastwest;top=0;left=0;right=0;bottom=1;html=1;" vertex="1" parent="EQsfz8BqnlJLkTx9funj-217">
          <mxGeometry y="30" width="220" height="30" as="geometry" />
        </mxCell>
        <mxCell id="EQsfz8BqnlJLkTx9funj-219" value="PK" style="shape=partialRectangle;connectable=0;fillColor=none;top=0;left=0;bottom=0;right=0;fontStyle=1;overflow=hidden;html=1;whiteSpace=wrap;" vertex="1" parent="EQsfz8BqnlJLkTx9funj-218">
          <mxGeometry width="29.999999999999545" height="30" as="geometry">
            <mxRectangle width="29.999999999999545" height="30" as="alternateBounds" />
          </mxGeometry>
        </mxCell>
        <mxCell id="EQsfz8BqnlJLkTx9funj-220" value="id_metodopago INT" style="shape=partialRectangle;connectable=0;fillColor=none;top=0;left=0;bottom=0;right=0;align=left;spacingLeft=6;fontStyle=5;overflow=hidden;html=1;whiteSpace=wrap;" vertex="1" parent="EQsfz8BqnlJLkTx9funj-218">
          <mxGeometry x="29.999999999999545" width="190.00000000000045" height="30" as="geometry">
            <mxRectangle width="190.00000000000045" height="30" as="alternateBounds" />
          </mxGeometry>
        </mxCell>
        <mxCell id="EQsfz8BqnlJLkTx9funj-221" value="" style="shape=tableRow;horizontal=0;startSize=0;swimlaneHead=0;swimlaneBody=0;fillColor=none;collapsible=0;dropTarget=0;points=[[0,0.5],[1,0.5]];portConstraint=eastwest;top=0;left=0;right=0;bottom=0;html=1;" vertex="1" parent="EQsfz8BqnlJLkTx9funj-217">
          <mxGeometry y="60" width="220" height="30" as="geometry" />
        </mxCell>
        <mxCell id="EQsfz8BqnlJLkTx9funj-222" value="" style="shape=partialRectangle;connectable=0;fillColor=none;top=0;left=0;bottom=0;right=0;editable=1;overflow=hidden;html=1;whiteSpace=wrap;" vertex="1" parent="EQsfz8BqnlJLkTx9funj-221">
          <mxGeometry width="29.999999999999545" height="30" as="geometry">
            <mxRectangle width="29.999999999999545" height="30" as="alternateBounds" />
          </mxGeometry>
        </mxCell>
        <mxCell id="EQsfz8BqnlJLkTx9funj-223" value="nombre CHAR(15)" style="shape=partialRectangle;connectable=0;fillColor=none;top=0;left=0;bottom=0;right=0;align=left;spacingLeft=6;overflow=hidden;html=1;whiteSpace=wrap;" vertex="1" parent="EQsfz8BqnlJLkTx9funj-221">
          <mxGeometry x="29.999999999999545" width="190.00000000000045" height="30" as="geometry">
            <mxRectangle width="190.00000000000045" height="30" as="alternateBounds" />
          </mxGeometry>
        </mxCell>
        <mxCell id="EQsfz8BqnlJLkTx9funj-224" value="" style="shape=tableRow;horizontal=0;startSize=0;swimlaneHead=0;swimlaneBody=0;fillColor=none;collapsible=0;dropTarget=0;points=[[0,0.5],[1,0.5]];portConstraint=eastwest;top=0;left=0;right=0;bottom=0;html=1;" vertex="1" parent="EQsfz8BqnlJLkTx9funj-217">
          <mxGeometry y="90" width="220" height="30" as="geometry" />
        </mxCell>
        <mxCell id="EQsfz8BqnlJLkTx9funj-225" value="" style="shape=partialRectangle;connectable=0;fillColor=none;top=0;left=0;bottom=0;right=0;editable=1;overflow=hidden;html=1;whiteSpace=wrap;" vertex="1" parent="EQsfz8BqnlJLkTx9funj-224">
          <mxGeometry width="29.999999999999545" height="30" as="geometry">
            <mxRectangle width="29.999999999999545" height="30" as="alternateBounds" />
          </mxGeometry>
        </mxCell>
        <mxCell id="EQsfz8BqnlJLkTx9funj-226" value="descuento DECIMAL(3, 3)" style="shape=partialRectangle;connectable=0;fillColor=none;top=0;left=0;bottom=0;right=0;align=left;spacingLeft=6;overflow=hidden;html=1;whiteSpace=wrap;" vertex="1" parent="EQsfz8BqnlJLkTx9funj-224">
          <mxGeometry x="29.999999999999545" width="190.00000000000045" height="30" as="geometry">
            <mxRectangle width="190.00000000000045" height="30" as="alternateBounds" />
          </mxGeometry>
        </mxCell>
        <mxCell id="EQsfz8BqnlJLkTx9funj-227" style="edgeStyle=orthogonalEdgeStyle;rounded=0;orthogonalLoop=1;jettySize=auto;html=1;" edge="1" target="EQsfz8BqnlJLkTx9funj-153" parent="1">
          <mxGeometry relative="1" as="geometry">
            <Array as="points">
              <mxPoint x="2359.91" y="1425" />
              <mxPoint x="2359.91" y="1595" />
            </Array>
            <mxPoint x="2339.9700000000003" y="1425" as="sourcePoint" />
          </mxGeometry>
        </mxCell>
        <mxCell id="EQsfz8BqnlJLkTx9funj-228" value="subCategoría" style="shape=table;startSize=30;container=1;collapsible=1;childLayout=tableLayout;fixedRows=1;rowLines=0;fontStyle=1;align=center;resizeLast=1;html=1;whiteSpace=wrap;" vertex="1" parent="1">
          <mxGeometry x="1509.91" y="1340" width="220" height="120" as="geometry" />
        </mxCell>
        <mxCell id="EQsfz8BqnlJLkTx9funj-229" value="" style="shape=tableRow;horizontal=0;startSize=0;swimlaneHead=0;swimlaneBody=0;fillColor=none;collapsible=0;dropTarget=0;points=[[0,0.5],[1,0.5]];portConstraint=eastwest;top=0;left=0;right=0;bottom=0;html=1;" vertex="1" parent="EQsfz8BqnlJLkTx9funj-228">
          <mxGeometry y="30" width="220" height="30" as="geometry" />
        </mxCell>
        <mxCell id="EQsfz8BqnlJLkTx9funj-230" value="PK" style="shape=partialRectangle;connectable=0;fillColor=none;top=0;left=0;bottom=0;right=0;fontStyle=1;overflow=hidden;html=1;whiteSpace=wrap;" vertex="1" parent="EQsfz8BqnlJLkTx9funj-229">
          <mxGeometry width="50" height="30" as="geometry">
            <mxRectangle width="50" height="30" as="alternateBounds" />
          </mxGeometry>
        </mxCell>
        <mxCell id="EQsfz8BqnlJLkTx9funj-231" value="id_subcategoria INT" style="shape=partialRectangle;connectable=0;fillColor=none;top=0;left=0;bottom=0;right=0;align=left;spacingLeft=6;fontStyle=5;overflow=hidden;html=1;whiteSpace=wrap;" vertex="1" parent="EQsfz8BqnlJLkTx9funj-229">
          <mxGeometry x="50" width="170" height="30" as="geometry">
            <mxRectangle width="170" height="30" as="alternateBounds" />
          </mxGeometry>
        </mxCell>
        <mxCell id="EQsfz8BqnlJLkTx9funj-232" value="" style="shape=tableRow;horizontal=0;startSize=0;swimlaneHead=0;swimlaneBody=0;fillColor=none;collapsible=0;dropTarget=0;points=[[0,0.5],[1,0.5]];portConstraint=eastwest;top=0;left=0;right=0;bottom=1;html=1;" vertex="1" parent="EQsfz8BqnlJLkTx9funj-228">
          <mxGeometry y="60" width="220" height="30" as="geometry" />
        </mxCell>
        <mxCell id="EQsfz8BqnlJLkTx9funj-233" value="FK" style="shape=partialRectangle;connectable=0;fillColor=none;top=0;left=0;bottom=0;right=0;fontStyle=1;overflow=hidden;html=1;whiteSpace=wrap;" vertex="1" parent="EQsfz8BqnlJLkTx9funj-232">
          <mxGeometry width="50" height="30" as="geometry">
            <mxRectangle width="50" height="30" as="alternateBounds" />
          </mxGeometry>
        </mxCell>
        <mxCell id="EQsfz8BqnlJLkTx9funj-234" value="id_categoría INT" style="shape=partialRectangle;connectable=0;fillColor=none;top=0;left=0;bottom=0;right=0;align=left;spacingLeft=6;fontStyle=5;overflow=hidden;html=1;whiteSpace=wrap;" vertex="1" parent="EQsfz8BqnlJLkTx9funj-232">
          <mxGeometry x="50" width="170" height="30" as="geometry">
            <mxRectangle width="170" height="30" as="alternateBounds" />
          </mxGeometry>
        </mxCell>
        <mxCell id="EQsfz8BqnlJLkTx9funj-235" value="" style="shape=tableRow;horizontal=0;startSize=0;swimlaneHead=0;swimlaneBody=0;fillColor=none;collapsible=0;dropTarget=0;points=[[0,0.5],[1,0.5]];portConstraint=eastwest;top=0;left=0;right=0;bottom=0;html=1;" vertex="1" parent="EQsfz8BqnlJLkTx9funj-228">
          <mxGeometry y="90" width="220" height="30" as="geometry" />
        </mxCell>
        <mxCell id="EQsfz8BqnlJLkTx9funj-236" value="" style="shape=partialRectangle;connectable=0;fillColor=none;top=0;left=0;bottom=0;right=0;editable=1;overflow=hidden;html=1;whiteSpace=wrap;" vertex="1" parent="EQsfz8BqnlJLkTx9funj-235">
          <mxGeometry width="50" height="30" as="geometry">
            <mxRectangle width="50" height="30" as="alternateBounds" />
          </mxGeometry>
        </mxCell>
        <mxCell id="EQsfz8BqnlJLkTx9funj-237" value="nombre CHAR(15)" style="shape=partialRectangle;connectable=0;fillColor=none;top=0;left=0;bottom=0;right=0;align=left;spacingLeft=6;overflow=hidden;html=1;whiteSpace=wrap;" vertex="1" parent="EQsfz8BqnlJLkTx9funj-235">
          <mxGeometry x="50" width="170" height="30" as="geometry">
            <mxRectangle width="170" height="30" as="alternateBounds" />
          </mxGeometry>
        </mxCell>
        <mxCell id="EQsfz8BqnlJLkTx9funj-238" style="edgeStyle=orthogonalEdgeStyle;rounded=0;orthogonalLoop=1;jettySize=auto;html=1;exitX=1;exitY=0.5;exitDx=0;exitDy=0;entryX=1;entryY=0.5;entryDx=0;entryDy=0;endArrow=none;endFill=0;startArrow=classic;startFill=1;" edge="1" source="EQsfz8BqnlJLkTx9funj-178" target="EQsfz8BqnlJLkTx9funj-150" parent="1">
          <mxGeometry relative="1" as="geometry">
            <Array as="points">
              <mxPoint x="2369.91" y="1805" />
              <mxPoint x="2369.91" y="1565" />
            </Array>
          </mxGeometry>
        </mxCell>
        <mxCell id="EQsfz8BqnlJLkTx9funj-239" style="edgeStyle=orthogonalEdgeStyle;rounded=0;orthogonalLoop=1;jettySize=auto;html=1;exitX=0;exitY=0.5;exitDx=0;exitDy=0;entryX=1;entryY=0.5;entryDx=0;entryDy=0;" edge="1" source="EQsfz8BqnlJLkTx9funj-172" target="EQsfz8BqnlJLkTx9funj-130" parent="1">
          <mxGeometry relative="1" as="geometry">
            <Array as="points">
              <mxPoint x="2109.91" y="1745" />
              <mxPoint x="2109.91" y="1745" />
            </Array>
          </mxGeometry>
        </mxCell>
        <mxCell id="EQsfz8BqnlJLkTx9funj-240" value="0 = Admin&lt;br&gt;1 = Usuario" style="text;html=1;strokeColor=none;fillColor=none;align=center;verticalAlign=middle;whiteSpace=wrap;rounded=0;" vertex="1" parent="1">
          <mxGeometry x="1719.91" y="1850" width="100" height="30" as="geometry" />
        </mxCell>
        <mxCell id="EQsfz8BqnlJLkTx9funj-241" style="edgeStyle=orthogonalEdgeStyle;rounded=0;orthogonalLoop=1;jettySize=auto;html=1;exitX=0;exitY=0.5;exitDx=0;exitDy=0;entryX=0;entryY=0.5;entryDx=0;entryDy=0;" edge="1" source="EQsfz8BqnlJLkTx9funj-229" target="EQsfz8BqnlJLkTx9funj-191" parent="1">
          <mxGeometry relative="1" as="geometry" />
        </mxCell>
        <mxCell id="EQsfz8BqnlJLkTx9funj-242" style="edgeStyle=orthogonalEdgeStyle;rounded=0;orthogonalLoop=1;jettySize=auto;html=1;exitX=1;exitY=0.5;exitDx=0;exitDy=0;entryX=1;entryY=0.5;entryDx=0;entryDy=0;" edge="1" source="EQsfz8BqnlJLkTx9funj-211" target="EQsfz8BqnlJLkTx9funj-232" parent="1">
          <mxGeometry relative="1" as="geometry" />
        </mxCell>
        <mxCell id="EQsfz8BqnlJLkTx9funj-243" style="edgeStyle=orthogonalEdgeStyle;rounded=0;orthogonalLoop=1;jettySize=auto;html=1;exitX=0;exitY=0.5;exitDx=0;exitDy=0;entryX=0;entryY=0.5;entryDx=0;entryDy=0;" edge="1" source="EQsfz8BqnlJLkTx9funj-218" target="EQsfz8BqnlJLkTx9funj-124" parent="1">
          <mxGeometry relative="1" as="geometry">
            <mxPoint x="1799.91" y="1610" as="targetPoint" />
          </mxGeometry>
        </mxCell>
        <mxCell id="EQsfz8BqnlJLkTx9funj-244" style="edgeStyle=orthogonalEdgeStyle;rounded=0;orthogonalLoop=1;jettySize=auto;html=1;exitX=1;exitY=0.5;exitDx=0;exitDy=0;entryX=0;entryY=0.5;entryDx=0;entryDy=0;" edge="1" source="EQsfz8BqnlJLkTx9funj-133" target="EQsfz8BqnlJLkTx9funj-175" parent="1">
          <mxGeometry relative="1" as="geometry" />
        </mxCell>
        <mxCell id="EQsfz8BqnlJLkTx9funj-245" value="stock" style="shape=table;startSize=30;container=1;collapsible=1;childLayout=tableLayout;fixedRows=1;rowLines=0;fontStyle=1;align=center;resizeLast=1;html=1;whiteSpace=wrap;" vertex="1" parent="1">
          <mxGeometry x="1241" y="1490" width="220" height="180" as="geometry" />
        </mxCell>
        <mxCell id="EQsfz8BqnlJLkTx9funj-246" value="" style="shape=tableRow;horizontal=0;startSize=0;swimlaneHead=0;swimlaneBody=0;fillColor=none;collapsible=0;dropTarget=0;points=[[0,0.5],[1,0.5]];portConstraint=eastwest;top=0;left=0;right=0;bottom=0;html=1;" vertex="1" parent="EQsfz8BqnlJLkTx9funj-245">
          <mxGeometry y="30" width="220" height="30" as="geometry" />
        </mxCell>
        <mxCell id="EQsfz8BqnlJLkTx9funj-247" value="PK" style="shape=partialRectangle;connectable=0;fillColor=none;top=0;left=0;bottom=0;right=0;fontStyle=1;overflow=hidden;html=1;whiteSpace=wrap;" vertex="1" parent="EQsfz8BqnlJLkTx9funj-246">
          <mxGeometry width="30" height="30" as="geometry">
            <mxRectangle width="30" height="30" as="alternateBounds" />
          </mxGeometry>
        </mxCell>
        <mxCell id="EQsfz8BqnlJLkTx9funj-248" value="id_stock INT" style="shape=partialRectangle;connectable=0;fillColor=none;top=0;left=0;bottom=0;right=0;align=left;spacingLeft=6;fontStyle=5;overflow=hidden;html=1;whiteSpace=wrap;" vertex="1" parent="EQsfz8BqnlJLkTx9funj-246">
          <mxGeometry x="30" width="190" height="30" as="geometry">
            <mxRectangle width="190" height="30" as="alternateBounds" />
          </mxGeometry>
        </mxCell>
        <mxCell id="EQsfz8BqnlJLkTx9funj-249" value="" style="shape=tableRow;horizontal=0;startSize=0;swimlaneHead=0;swimlaneBody=0;fillColor=none;collapsible=0;dropTarget=0;points=[[0,0.5],[1,0.5]];portConstraint=eastwest;top=0;left=0;right=0;bottom=1;html=1;" vertex="1" parent="EQsfz8BqnlJLkTx9funj-245">
          <mxGeometry y="60" width="220" height="30" as="geometry" />
        </mxCell>
        <mxCell id="EQsfz8BqnlJLkTx9funj-250" value="FK" style="shape=partialRectangle;connectable=0;fillColor=none;top=0;left=0;bottom=0;right=0;fontStyle=1;overflow=hidden;html=1;whiteSpace=wrap;" vertex="1" parent="EQsfz8BqnlJLkTx9funj-249">
          <mxGeometry width="30" height="30" as="geometry">
            <mxRectangle width="30" height="30" as="alternateBounds" />
          </mxGeometry>
        </mxCell>
        <mxCell id="EQsfz8BqnlJLkTx9funj-251" value="codigo CHAR(25)" style="shape=partialRectangle;connectable=0;fillColor=none;top=0;left=0;bottom=0;right=0;align=left;spacingLeft=6;fontStyle=5;overflow=hidden;html=1;whiteSpace=wrap;" vertex="1" parent="EQsfz8BqnlJLkTx9funj-249">
          <mxGeometry x="30" width="190" height="30" as="geometry">
            <mxRectangle width="190" height="30" as="alternateBounds" />
          </mxGeometry>
        </mxCell>
        <mxCell id="EQsfz8BqnlJLkTx9funj-261" value="" style="shape=tableRow;horizontal=0;startSize=0;swimlaneHead=0;swimlaneBody=0;fillColor=none;collapsible=0;dropTarget=0;points=[[0,0.5],[1,0.5]];portConstraint=eastwest;top=0;left=0;right=0;bottom=0;html=1;" vertex="1" parent="EQsfz8BqnlJLkTx9funj-245">
          <mxGeometry y="90" width="220" height="30" as="geometry" />
        </mxCell>
        <mxCell id="EQsfz8BqnlJLkTx9funj-262" value="" style="shape=partialRectangle;connectable=0;fillColor=none;top=0;left=0;bottom=0;right=0;editable=1;overflow=hidden;html=1;whiteSpace=wrap;" vertex="1" parent="EQsfz8BqnlJLkTx9funj-261">
          <mxGeometry width="30" height="30" as="geometry">
            <mxRectangle width="30" height="30" as="alternateBounds" />
          </mxGeometry>
        </mxCell>
        <mxCell id="EQsfz8BqnlJLkTx9funj-263" value="stock INT(15)" style="shape=partialRectangle;connectable=0;fillColor=none;top=0;left=0;bottom=0;right=0;align=left;spacingLeft=6;overflow=hidden;html=1;whiteSpace=wrap;" vertex="1" parent="EQsfz8BqnlJLkTx9funj-261">
          <mxGeometry x="30" width="190" height="30" as="geometry">
            <mxRectangle width="190" height="30" as="alternateBounds" />
          </mxGeometry>
        </mxCell>
        <mxCell id="EQsfz8BqnlJLkTx9funj-255" value="" style="shape=tableRow;horizontal=0;startSize=0;swimlaneHead=0;swimlaneBody=0;fillColor=none;collapsible=0;dropTarget=0;points=[[0,0.5],[1,0.5]];portConstraint=eastwest;top=0;left=0;right=0;bottom=0;html=1;" vertex="1" parent="EQsfz8BqnlJLkTx9funj-245">
          <mxGeometry y="120" width="220" height="30" as="geometry" />
        </mxCell>
        <mxCell id="EQsfz8BqnlJLkTx9funj-256" value="" style="shape=partialRectangle;connectable=0;fillColor=none;top=0;left=0;bottom=0;right=0;editable=1;overflow=hidden;html=1;whiteSpace=wrap;" vertex="1" parent="EQsfz8BqnlJLkTx9funj-255">
          <mxGeometry width="30" height="30" as="geometry">
            <mxRectangle width="30" height="30" as="alternateBounds" />
          </mxGeometry>
        </mxCell>
        <mxCell id="EQsfz8BqnlJLkTx9funj-257" value="fechaVencimiento DATE&amp;nbsp;" style="shape=partialRectangle;connectable=0;fillColor=none;top=0;left=0;bottom=0;right=0;align=left;spacingLeft=6;overflow=hidden;html=1;whiteSpace=wrap;" vertex="1" parent="EQsfz8BqnlJLkTx9funj-255">
          <mxGeometry x="30" width="190" height="30" as="geometry">
            <mxRectangle width="190" height="30" as="alternateBounds" />
          </mxGeometry>
        </mxCell>
        <mxCell id="EQsfz8BqnlJLkTx9funj-258" value="" style="shape=tableRow;horizontal=0;startSize=0;swimlaneHead=0;swimlaneBody=0;fillColor=none;collapsible=0;dropTarget=0;points=[[0,0.5],[1,0.5]];portConstraint=eastwest;top=0;left=0;right=0;bottom=0;html=1;" vertex="1" parent="EQsfz8BqnlJLkTx9funj-245">
          <mxGeometry y="150" width="220" height="30" as="geometry" />
        </mxCell>
        <mxCell id="EQsfz8BqnlJLkTx9funj-259" value="" style="shape=partialRectangle;connectable=0;fillColor=none;top=0;left=0;bottom=0;right=0;editable=1;overflow=hidden;html=1;whiteSpace=wrap;" vertex="1" parent="EQsfz8BqnlJLkTx9funj-258">
          <mxGeometry width="30" height="30" as="geometry">
            <mxRectangle width="30" height="30" as="alternateBounds" />
          </mxGeometry>
        </mxCell>
        <mxCell id="EQsfz8BqnlJLkTx9funj-260" value="ubicacion CHAR(25)" style="shape=partialRectangle;connectable=0;fillColor=none;top=0;left=0;bottom=0;right=0;align=left;spacingLeft=6;overflow=hidden;html=1;whiteSpace=wrap;" vertex="1" parent="EQsfz8BqnlJLkTx9funj-258">
          <mxGeometry x="30" width="190" height="30" as="geometry">
            <mxRectangle width="190" height="30" as="alternateBounds" />
          </mxGeometry>
        </mxCell>
        <mxCell id="EQsfz8BqnlJLkTx9funj-274" style="edgeStyle=orthogonalEdgeStyle;rounded=0;orthogonalLoop=1;jettySize=auto;html=1;exitX=0;exitY=0.5;exitDx=0;exitDy=0;entryX=1;entryY=0.5;entryDx=0;entryDy=0;" edge="1" parent="1" source="EQsfz8BqnlJLkTx9funj-188" target="EQsfz8BqnlJLkTx9funj-246">
          <mxGeometry relative="1" as="geometry" />
        </mxCell>
      </root>
    </mxGraphModel>
  </diagram>
</mxfile>
